<svg width="38" height="29" viewBox="0 0 38 29" fill="none" xmlns="http://www.w3.org/2000/svg">
<path d="M9.11771 11.9357L2.29518 12.6937C1.86917 12.741 1.54688 13.1011 1.54688 13.5298V23.7125C1.54688 24.1771 1.92349 24.5537 2.38808 24.5537H15.8473C16.3119 24.5537 16.6886 24.1771 16.6886 23.7125V18.6653C16.6886 18.2007 17.0652 17.8241 17.5298 17.8241H20.0534C20.518 17.8241 20.8946 18.2007 20.8946 18.6653V23.7125C20.8946 24.1771 21.2712 24.5537 21.7358 24.5537H23.4182M29.3066 24.5537H36.0362C36.5008 24.5537 36.8775 24.1771 36.8775 23.7125V10.0118C36.8775 9.65289 36.6498 9.33353 36.3105 9.21653L13.598 1.38463C13.0517 1.19627 12.4825 1.60206 12.4825 2.17988V22.0301M15.0061 11.0944L25.8228 9.54921C26.3296 9.47681 26.783 9.87004 26.783 10.382V27.0773C26.783 27.5419 26.4064 27.9185 25.9418 27.9185H13.3237C12.8591 27.9185 12.4825 27.5419 12.4825 27.0773V26.2361" stroke="black" stroke-width="1.68241"/>
</svg>
