<svg width="78" height="70" viewBox="0 0 78 70" fill="none" xmlns="http://www.w3.org/2000/svg">
<path d="M3.04598 60.1932H7.17354V62.3902H0.396068L0.21875 61.531L4.0672 46.4745H0.62264V44.2515H6.15232L6.66129 45.2865L3.04598 60.1932Z" fill="#262020"/>
<path d="M8.57422 62.3931V44.2544H14.6391V46.4514H11.0205V51.9584H14.232V54.1554H11.0205V60.1929H14.6391V62.3899H8.57422V62.3931Z" fill="#262020"/>
<path d="M21.3699 54.9137L23.6389 44.2544H26.3414V62.3931H23.895L24.1512 50.5198L22.3156 59.1091H20.4242L18.5886 50.5198L18.8448 62.3931H16.3984V44.2544H19.1009L21.3699 54.9137Z" fill="#262020"/>
<path d="M28.6328 62.3931V44.2544H34.6977V46.4514H31.0791V51.9584H34.2906V54.1554H31.0791V60.1929H34.6977V62.3899H28.6328V62.3931Z" fill="#262020"/>
<path d="M43.3911 62.3938H41.0203L39.6445 55.497H39.5919L37.937 62.3938H35.668L37.9862 53.2252L35.819 44.2583H38.2161L39.5919 50.9533H39.6445L41.1747 44.2583H43.4437L41.2502 53.2252L43.3911 62.3938Z" fill="#262020"/>
<path d="M44.9447 44.2544H49.4039C51.3741 44.2544 52.3592 45.2894 52.3592 47.3627V52.7428C52.3592 54.7965 51.3807 55.825 49.4269 55.825H47.3877V62.3931H44.9414V44.2544H44.9447ZM47.391 53.6248H48.9442C49.5911 53.6248 49.9129 53.2701 49.9129 52.5638V47.5124C49.9129 46.8061 49.5484 46.4514 48.8161 46.4514H47.3877V53.6248H47.391Z" fill="#262020"/>
<path d="M54.293 62.3931V44.2544H60.3579V46.4514H56.7393V51.9584H59.9507V54.1554H56.7393V60.1929H60.3579V62.3899H54.293V62.3931Z" fill="#262020"/>
<path d="M62.125 44.2544H66.9159C68.7843 44.2544 69.7201 45.2894 69.7201 47.3627V51.8347C69.7201 53.4165 69.2374 54.419 68.2687 54.8421L69.9762 62.3964H67.658L66.0523 55.0699H64.5746V62.3964H62.1283V44.2544H62.125ZM64.5713 52.9934H66.177C66.906 52.9934 67.2738 52.554 67.2738 51.6785V47.763C67.2738 46.8875 66.9093 46.4481 66.177 46.4481H64.5713V52.9934Z" fill="#262020"/>
<path d="M75.6541 46.4514V62.3931H73.2078V46.4514H70.8633V44.2544H77.9987V46.4514H75.6541Z" fill="#262020"/>
<path d="M0.643597 68.3301H0.889871C1.05077 68.3301 1.11316 68.2976 1.11316 68.1381C1.11316 68.0177 1.07376 67.9461 0.80778 67.9461C0.600909 67.9461 0.515534 67.9851 0.515534 68.1511H0.0229856V68.0665C0.0229856 67.6206 0.311947 67.5034 0.817631 67.5034C1.32331 67.5034 1.63198 67.6173 1.63198 68.0372C1.63198 68.2911 1.58272 68.4571 1.3266 68.5026V68.5222C1.57616 68.5449 1.66153 68.6979 1.66153 68.9453C1.66153 69.4107 1.5269 69.5604 0.820914 69.5604C0.275827 69.5604 0 69.4628 0 68.8899H0.495832C0.495832 69.0983 0.568073 69.121 0.820914 69.121C1.06391 69.121 1.14271 69.0755 1.14271 68.9062C1.14271 68.7598 1.08361 68.7012 0.91614 68.7012H0.643597V68.3301Z" fill="#262020"/>
<path d="M2.72585 68.3334H3.55333V68.7044H2.72585V69.095H3.62557V69.5344H2.20703V67.5229H3.60587V67.9623H2.72585V68.3334Z" fill="#262020"/>
<path d="M5.03966 67.5264L5.41072 68.7892H5.42714L5.77849 67.5264H6.6191V69.5378H6.10029L6.15282 67.9951L6.12984 67.9885L5.64386 69.5345H5.19728L4.70801 67.9885L4.68503 67.9951L4.73757 69.5378H4.21875V67.5264H5.03966Z" fill="#262020"/>
<path d="M8.99187 67.5264V69.5378H8.47634V67.9918H7.91484V68.838C7.91484 69.2774 7.73095 69.5573 7.33691 69.5573C7.22527 69.5573 7.15303 69.5508 7.07422 69.5345V69.0984C7.12019 69.1147 7.16288 69.1179 7.23183 69.1179C7.37303 69.1179 7.42229 69.0431 7.42229 68.8445V67.5264H8.99187Z" fill="#262020"/>
<path d="M10.6404 68.8279H10.3974L10.0559 69.5375H9.46484L9.88515 68.7661C9.63559 68.6554 9.54037 68.4862 9.54037 68.164C9.54037 67.7311 9.70455 67.5293 10.1643 67.5293H11.1559V69.5407H10.6404V68.8279ZM10.6404 67.9654H10.2529C10.1052 67.9654 10.0559 68.0077 10.0559 68.1802C10.0559 68.3365 10.1446 68.3886 10.2923 68.3886H10.6404V67.9654Z" fill="#262020"/>
<path d="M13.6973 69.5378H13.3984V67.5264H13.6973V69.5378Z" fill="#262020"/>
<path d="M16.4648 68.2815H17.1379V67.5264H17.6567V69.5378H17.1379V68.7502H16.4648V69.5378H15.9492V67.5264H16.4648V68.2815Z" fill="#262020"/>
<path d="M18.7655 68.3334H19.593V68.7044H18.7655V69.095H19.6653V69.5344H18.25V67.5229H19.6488V67.9623H18.7655V68.3334Z" fill="#262020"/>
<path d="M21.9879 67.5262V69.0755H22.1521V69.9998H21.6595V69.5344H20.6449V69.9998H20.1523V69.0755H20.3034C20.438 68.8867 20.4938 68.6719 20.4938 68.2292V67.5229H21.9879V67.5262ZM20.9864 67.9851V68.2618C20.9864 68.6589 20.9339 68.8769 20.8255 69.0755H21.4691V67.9851H20.9864Z" fill="#262020"/>
<path d="M22.6328 67.5264H23.6507C24.0349 67.5264 24.2648 67.6012 24.2648 68.0406C24.2648 68.2945 24.2155 68.4605 23.9594 68.506V68.5256C24.2451 68.5451 24.2943 68.7241 24.2943 68.9747C24.2943 69.4695 24.0711 69.5345 23.6606 69.5345H22.6328V67.5264ZM23.1516 68.3303H23.5227C23.7033 68.3303 23.7493 68.2977 23.7493 68.1383C23.7493 68.0178 23.723 67.9658 23.5851 67.9658H23.1516V68.3303ZM23.1516 69.0952H23.5424C23.7099 69.0952 23.7788 69.0561 23.7788 68.8901C23.7788 68.7241 23.7197 68.7013 23.5522 68.7013H23.1516V69.0952Z" fill="#262020"/>
<path d="M25.333 68.851H25.3527L25.9569 67.5264H26.6366V69.5378H26.1441V68.2131H26.1277L25.5465 69.5378H24.8438V67.5264H25.3363V68.851H25.333Z" fill="#262020"/>
<path d="M28.9866 68.2815L29.4167 67.5264H30.0045L29.42 68.4995L30.0931 69.5378H29.4528L28.9866 68.7502H28.8322V69.5378H28.343V68.7502H28.1886L27.7223 69.5378H27.082L27.7552 68.4995L27.1707 67.5264H27.7585L28.1886 68.2815H28.343V67.5264H28.8322V68.2815H28.9866Z" fill="#262020"/>
<path d="M31.0115 68.851H31.0279L31.6321 67.5264H32.3118V69.5378H31.8192V68.2131H31.7995L31.2183 69.5378H30.5156V67.5264H31.0082V68.851H31.0115Z" fill="#262020"/>
<path d="M33.7284 67.5264L34.0995 68.7892H34.1159L34.4672 67.5264H35.3078V69.5378H34.7923L34.8449 67.9951L34.8219 67.9885L34.3359 69.5345H33.8893L33.4 67.9885L33.3771 67.9951L33.4296 69.5378H32.9141V67.5264H33.7284Z" fill="#262020"/>
<path d="M35.8555 68.8151V68.2455C35.8555 67.6271 36.2265 67.5034 36.7519 67.5034C37.2773 67.5034 37.6483 67.6238 37.6483 68.2455V68.8151C37.6483 69.4335 37.2773 69.5637 36.7519 69.5637C36.2265 69.5637 35.8555 69.4335 35.8555 68.8151ZM37.1164 68.7565V68.3041C37.1164 68.0079 37.0212 67.9754 36.7519 67.9754C36.4826 67.9754 36.3874 68.0047 36.3874 68.3041V68.7565C36.3874 69.0559 36.4826 69.0983 36.7519 69.0983C37.0212 69.095 37.1164 69.0559 37.1164 68.7565Z" fill="#262020"/>
<path d="M39.3162 68.2455V68.1674C39.3162 68.0079 39.175 67.9721 38.9977 67.9721C38.7021 67.9721 38.6759 68.0697 38.6759 68.3562V68.6686C38.6759 68.9681 38.689 69.095 38.9977 69.095C39.2111 69.095 39.3162 69.0787 39.3162 68.8411V68.7825H39.8481V68.8411C39.8481 69.4074 39.6577 69.5604 39.0535 69.5604C38.5248 69.5604 38.1406 69.5214 38.1406 68.789V68.2683C38.1406 67.6043 38.4854 67.5034 39.0535 67.5034C39.569 67.5034 39.8481 67.6499 39.8481 68.1674V68.2455H39.3162Z" fill="#262020"/>
<path d="M41.3144 69.5378H40.7955V67.9918H40.2734V67.5264H41.8365V67.9918H41.3144V69.5378Z" fill="#262020"/>
<path d="M42.8352 68.3043H43.3146C43.712 68.3043 43.9123 68.4702 43.9123 68.9194C43.9123 69.3686 43.7054 69.5378 43.3146 69.5378H42.3164V67.5264H42.8352V68.3043ZM42.8352 69.1179H43.1931C43.3409 69.1179 43.3934 69.0789 43.3934 68.9259C43.3934 68.7599 43.3409 68.7209 43.1931 68.7209H42.8352V69.1179Z" fill="#262020"/>
<path d="M46.4043 69.5378H46.1055V67.5264H46.4043V69.5378Z" fill="#262020"/>
<path d="M49.7654 68.2455V68.1674C49.7654 68.0079 49.6242 67.9721 49.4469 67.9721C49.1513 67.9721 49.1251 68.0697 49.1251 68.3562V68.6686C49.1251 68.9681 49.1382 69.095 49.4469 69.095C49.6603 69.095 49.7654 69.0787 49.7654 68.8411V68.7825H50.2973V68.8411C50.2973 69.4074 50.1102 69.5604 49.5027 69.5604C48.974 69.5604 48.5898 69.5214 48.5898 68.789V68.2683C48.5898 67.6043 48.9346 67.5034 49.5027 67.5034C50.0182 67.5034 50.2973 67.6499 50.2973 68.1674V68.2455H49.7654Z" fill="#262020"/>
<path d="M51.7681 69.5378H51.2526V67.9918H50.7305V67.5264H52.2935V67.9918H51.7714V69.5378H51.7681Z" fill="#262020"/>
<path d="M53.2844 69.5378H52.7656V67.5264H53.7409C54.2203 67.5264 54.4042 67.7119 54.4042 68.2359C54.4042 68.8022 54.2827 68.978 53.7409 68.978H53.2844V69.5378ZM53.2844 68.5386H53.6391C53.8361 68.5386 53.8722 68.4995 53.8722 68.2424C53.8722 68.0374 53.8427 67.9658 53.6391 67.9658H53.2844V68.5386Z" fill="#262020"/>
<path d="M54.8984 68.8151V68.2455C54.8984 67.6271 55.2695 67.5034 55.7949 67.5034C56.3203 67.5034 56.6913 67.6238 56.6913 68.2455V68.8151C56.6913 69.4335 56.3203 69.5637 55.7949 69.5637C55.2695 69.5637 54.8984 69.4335 54.8984 68.8151ZM56.1594 68.7565V68.3041C56.1594 68.0079 56.0641 67.9754 55.7949 67.9754C55.5256 67.9754 55.4304 68.0047 55.4304 68.3041V68.7565C55.4304 69.0559 55.5256 69.0983 55.7949 69.0983C56.0641 69.095 56.1594 69.0559 56.1594 68.7565Z" fill="#262020"/>
<path d="M57.7302 68.851H57.7466L58.3508 67.5264H59.0305V69.5378H58.538V68.2131H58.5183L57.9371 69.5378H57.2344V67.5264H57.7269V68.851H57.7302Z" fill="#262020"/>
<path d="M60.5494 69.5378H60.0338V67.9918H59.5117V67.5264H61.0747V67.9918H60.5526V69.5378H60.5494Z" fill="#262020"/>
<path d="M62.0702 68.3334H62.8977V68.7044H62.0702V69.095H62.9699V69.5344H61.5547V67.5229H62.9535V67.9623H62.0735V68.3334H62.0702Z" fill="#262020"/>
<path d="M65.3467 67.5264V69.5378H64.8279V67.9918H64.2664V68.838C64.2664 69.2774 64.0825 69.5573 63.6885 69.5573C63.5768 69.5573 63.5046 69.5508 63.4258 69.5345V69.0984C63.4718 69.1147 63.5144 69.1179 63.5834 69.1179C63.7246 69.1179 63.7739 69.0431 63.7739 68.8445V67.5264H65.3467Z" fill="#262020"/>
<path d="M66.4602 68.3043H66.9396C67.337 68.3043 67.5373 68.4702 67.5373 68.9194C67.5373 69.3686 67.3304 69.5378 66.9396 69.5378H65.9414V67.5264H66.4602V68.3043ZM66.4602 69.1179H66.8181C66.9659 69.1179 67.0184 69.0789 67.0184 68.9259C67.0184 68.7599 66.9659 68.7209 66.8181 68.7209H66.4602V69.1179Z" fill="#262020"/>
<path d="M69.199 68.2455V68.1674C69.199 68.0079 69.0578 67.9721 68.8805 67.9721C68.5849 67.9721 68.5587 68.0697 68.5587 68.3562V68.6686C68.5587 68.9681 68.5718 69.095 68.8805 69.095C69.0939 69.095 69.199 69.0787 69.199 68.8411V68.7825H69.7309V68.8411C69.7309 69.4074 69.5405 69.5604 68.9363 69.5604C68.4076 69.5604 68.0234 69.5214 68.0234 68.789V68.2683C68.0234 67.6043 68.3682 67.5034 68.9363 67.5034C69.4518 67.5034 69.7309 67.6499 69.7309 68.1674V68.2455H69.199Z" fill="#262020"/>
<path d="M71.2017 69.5378H70.6862V67.9918H70.1641V67.5264H71.7271V67.9918H71.205V69.5378H71.2017Z" fill="#262020"/>
<path d="M72.2031 67.5264H73.2211C73.6052 67.5264 73.8351 67.6012 73.8351 68.0406C73.8351 68.2945 73.7858 68.4605 73.5297 68.506V68.5256C73.8154 68.5451 73.8647 68.7241 73.8647 68.9747C73.8647 69.4695 73.6414 69.5345 73.2309 69.5345H72.2031V67.5264ZM72.7187 68.3303H73.0897C73.2703 68.3303 73.313 68.2977 73.313 68.1383C73.313 68.0178 73.2867 67.9658 73.1488 67.9658H72.7154V68.3303H72.7187ZM72.7187 69.0952H73.1094C73.2769 69.0952 73.3458 69.0561 73.3458 68.8901C73.3458 68.7241 73.2867 68.7013 73.1193 68.7013H72.7187V69.0952Z" fill="#262020"/>
<path d="M74.3555 68.8151V68.2455C74.3555 67.6271 74.7265 67.5034 75.2519 67.5034C75.7773 67.5034 76.1483 67.6238 76.1483 68.2455V68.8151C76.1483 69.4335 75.7773 69.5637 75.2519 69.5637C74.7265 69.5637 74.3555 69.4335 74.3555 68.8151ZM75.6164 68.7565V68.3041C75.6164 68.0079 75.5212 67.9754 75.2519 67.9754C74.9826 67.9754 74.8874 68.0047 74.8874 68.3041V68.7565C74.8874 69.0559 74.9826 69.0983 75.2519 69.0983C75.5212 69.095 75.6164 69.0559 75.6164 68.7565Z" fill="#262020"/>
<path d="M53.9057 14.0443L51.0587 15.4373V2.82187H25.7844V10.132L22.9375 12.7912V0H53.9057V14.0443Z" fill="#262020"/>
<path d="M53.9057 30.6986H22.9375V16.9961H25.7844V27.8767H51.0587V21.6569L53.9057 18.7472V30.6986Z" fill="#262020"/>
<path d="M21.4465 22.1615L19.4336 20.1664L36.768 2.97803L47.4859 13.6015L45.473 15.5967L36.768 6.97161L21.4465 22.1615Z" fill="#262020"/>
<path d="M41.4444 27.7597L30.7266 17.1362L32.7394 15.141L41.4444 23.7661L56.766 8.57617L58.7789 10.5713L41.4444 27.7597Z" fill="#262020"/>
<path d="M38.518 12.9665V12.3481C38.518 11.4563 37.8383 10.7207 36.9648 10.623V12.9665H38.518Z" fill="#262020"/>
<path d="M36.5688 10.623C35.6953 10.7207 35.0156 11.453 35.0156 12.3481V12.9665H36.5688V10.623Z" fill="#262020"/>
<path d="M36.5688 13.3604H35.0156V15.0138H36.5688V13.3604Z" fill="#262020"/>
<path d="M38.518 13.3604H36.9648V15.0138H38.518V13.3604Z" fill="#262020"/>
</svg>
