<svg width="212" height="19" viewBox="0 0 212 19" fill="none" xmlns="http://www.w3.org/2000/svg">
<path fill-rule="evenodd" clip-rule="evenodd" d="M14.2601 13.4582V6.82716C14.2601 4.94616 13.2501 4.05316 11.5541 4.05316C10.144 4.05316 8.92436 4.88916 8.39079 5.72516C8.04778 4.68016 7.19025 4.05316 5.83726 4.05316C4.4271 4.05316 3.20751 4.92716 2.82638 5.47816V4.28116H0.40625V13.4582H2.82638V7.28316C3.18845 6.77016 3.89353 6.20016 4.732 6.20016C5.72292 6.20016 6.10405 6.80816 6.10405 7.66316V13.4582H8.54324V7.26416C8.88625 6.77016 9.59133 6.20016 10.4489 6.20016C11.4398 6.20016 11.8209 6.80816 11.8209 7.66316V13.4582H14.2601ZM20.9107 13.6862C17.8808 13.6862 16.0514 11.4822 16.0514 8.86016C16.0514 6.25716 17.8808 4.05316 20.9107 4.05316C23.9597 4.05316 25.7891 6.25716 25.7891 8.86016C25.7891 11.4822 23.9597 13.6862 20.9107 13.6862ZM20.9107 11.5392C22.4161 11.5392 23.2737 10.3042 23.2737 8.86016C23.2737 7.43516 22.4161 6.20016 20.9107 6.20016C19.4053 6.20016 18.5668 7.43516 18.5668 8.86016C18.5668 10.3042 19.4053 11.5392 20.9107 11.5392ZM36.2128 13.4582V6.97916C36.2128 5.19316 35.2409 4.05316 33.221 4.05316C31.7156 4.05316 30.5912 4.77516 30.0005 5.47816V4.28116H27.5804V13.4582H30.0005V7.28316C30.4007 6.73216 31.1439 6.20016 32.0967 6.20016C33.1257 6.20016 33.7927 6.63716 33.7927 7.91016V13.4582H36.2128ZM42.8825 13.6862C39.8525 13.6862 38.0231 11.4822 38.0231 8.86016C38.0231 6.25716 39.8525 4.05316 42.8825 4.05316C45.9315 4.05316 47.7609 6.25716 47.7609 8.86016C47.7609 11.4822 45.9315 13.6862 42.8825 13.6862ZM42.8825 11.5392C44.3879 11.5392 45.2454 10.3042 45.2454 8.86016C45.2454 7.43516 44.3879 6.20016 42.8825 6.20016C41.377 6.20016 40.5386 7.43516 40.5386 8.86016C40.5386 10.3042 41.377 11.5392 42.8825 11.5392ZM51.9723 10.5132C52.3725 11.1022 53.2681 11.5392 54.0494 11.5392C55.4595 11.5392 56.3933 10.4752 56.3933 8.87916C56.3933 7.28316 55.4595 6.20016 54.0494 6.20016C53.2681 6.20016 52.3725 6.65616 51.9723 7.26416V10.5132ZM51.9723 13.4582H49.5521V0.785156H51.9723V5.45916C52.6964 4.52816 53.7254 4.05316 54.8116 4.05316C57.1555 4.05316 58.8897 5.87716 58.8897 8.87916C58.8897 11.9382 57.1365 13.6862 54.8116 13.6862C53.7064 13.6862 52.6964 13.1922 51.9723 12.2802V13.4582ZM68.6655 13.4582H66.2453V12.5082C65.6165 13.2492 64.5303 13.6862 63.3298 13.6862C61.8624 13.6862 60.1283 12.6982 60.1283 10.6462C60.1283 8.49916 61.8624 7.68216 63.3298 7.68216C64.5494 7.68216 65.6356 8.08116 66.2453 8.80316V7.56816C66.2453 6.63716 65.445 6.02916 64.2254 6.02916C63.2345 6.02916 62.3198 6.39016 61.5385 7.11216L60.6238 5.49716C61.7481 4.50916 63.1964 4.05316 64.6446 4.05316C66.7408 4.05316 68.6655 4.88916 68.6655 7.53016V13.4582ZM64.3016 12.0522C65.0829 12.0522 65.8452 11.7862 66.2453 11.2542V10.1142C65.8452 9.58216 65.0829 9.31616 64.3016 9.31616C63.3488 9.31616 62.5675 9.81016 62.5675 10.7032C62.5675 11.5582 63.3488 12.0522 64.3016 12.0522ZM79.699 13.4582V6.97916C79.699 5.19316 78.7271 4.05316 76.7072 4.05316C75.2018 4.05316 74.0774 4.77516 73.4867 5.47816V4.28116H71.0666V13.4582H73.4867V7.28316C73.8869 6.73216 74.6301 6.20016 75.5829 6.20016C76.6119 6.20016 77.2789 6.63716 77.2789 7.91016V13.4582H79.699ZM91.0946 13.4582L87.3405 8.44216L90.9803 4.28116H88.0075L84.5202 8.36616V0.785156H82.1001V13.4582H84.5202V11.1022L85.6255 9.92416L88.0647 13.4582H91.0946Z" fill="black"/>
<g opacity="0.6">
<path fill-rule="evenodd" clip-rule="evenodd" d="M204.667 2.51927H206.65V8.80669H206.762L209.34 5.78648L211.169 5.78173L208.341 9.08298L211.748 13.2115H209.464L206.679 9.36877H206.65V13.2115H204.667V2.51927ZM110.417 2.99744V8.86052C110.417 10.8579 111.01 11.9496 112.672 11.9496C114.263 11.9496 114.899 10.6259 114.899 8.97611V2.99744H116.772V9.34107C116.772 11.9203 115.078 13.3817 112.613 13.3817C109.792 13.3817 108.324 12.0224 108.324 9.23894V2.99744H110.417ZM121.152 6.77448C121.823 6.07544 122.757 5.73977 123.694 5.73977C125.431 5.73977 126.351 6.67077 126.351 8.50823V13.2052H124.379V8.72911C124.379 7.70707 123.919 7.03573 122.893 7.03573C121.927 7.03573 121.169 7.66353 121.169 8.86052V13.2052H119.195V5.91315H121.152V6.77448ZM128.671 13.2052H130.645V5.91315H128.671V13.2052ZM128.477 3.72657C128.477 3.17319 128.951 2.60319 129.622 2.60319C130.305 2.60319 130.837 3.15815 130.837 3.72657C130.837 4.35277 130.379 4.95127 129.65 4.95127C128.952 4.95127 128.477 4.35277 128.477 3.72657ZM135.014 13.2052L131.854 5.88227H133.946C134.586 7.55982 135.25 9.13761 135.872 11.1643H135.902C136.573 9.13761 137.205 7.55982 137.887 5.88227H139.739L136.393 13.2052H135.014ZM145.615 8.68557C145.692 7.57407 145.29 6.81803 144.313 6.81803C143.18 6.81803 142.671 7.70707 142.693 8.68557H145.615ZM142.66 9.73532C142.616 11.1073 143.596 12.1262 144.828 12.1262C145.56 12.1262 146.329 11.8784 146.821 11.5419L147.385 12.5639C146.375 13.1466 145.319 13.3817 144.473 13.3817C142.23 13.3817 140.553 11.8198 140.553 9.4139C140.553 7.16715 142.214 5.73977 144.339 5.73977C146.656 5.73977 147.622 7.5614 147.476 9.73532H142.66ZM151.351 7.19644H151.379L151.781 6.62802C152.002 6.30582 152.448 5.73977 153.057 5.73977C153.502 5.73977 153.98 5.97332 154.396 6.39448L153.651 7.73636C153.325 7.57407 153.116 7.48857 152.717 7.48857C152.034 7.48857 151.366 8.02848 151.366 9.60232V13.2052H149.385V5.91315H151.351V7.19644ZM159.667 7.28352C159.222 6.9629 158.762 6.81803 158.403 6.81803C157.958 6.81803 157.512 7.06502 157.512 7.5614C157.512 8.14486 158.227 8.48132 159.057 9.07665C160.115 9.85327 160.424 10.6109 160.424 11.2783C160.424 12.3027 159.279 13.3817 157.648 13.3817C156.622 13.3817 155.865 13.0302 155.169 12.5497L155.792 11.5419C156.235 11.8942 156.873 12.2417 157.407 12.2417C157.975 12.2417 158.478 11.9496 158.478 11.3376C158.478 10.6521 157.704 10.2736 156.994 9.77727C156.146 9.20965 155.569 8.65469 155.569 7.75219C155.569 6.59794 156.695 5.73977 158.15 5.73977C158.97 5.73977 159.77 5.94244 160.308 6.41111L159.667 7.28352ZM165.293 9.32602C164.33 9.6324 163.84 10.1715 163.84 11.002C163.84 11.6448 164.256 12.0826 164.734 12.0826C165.518 12.0826 166.544 11.1192 166.397 8.97611L165.293 9.32602ZM165.921 12.5061C165.385 12.9439 164.702 13.3817 164.021 13.3817C162.861 13.3817 161.893 12.5061 161.893 11.1643C161.893 9.77727 162.92 9.0054 164.644 8.50823L166.397 7.99761C166.294 7.32786 165.683 6.9059 165.047 6.9059C164.198 6.9059 163.603 7.21227 163.084 7.65007L162.443 6.73094C163.366 5.98757 164.27 5.73977 165.293 5.73977C166.663 5.73977 168.342 6.1744 168.342 8.45202V11.4255C168.342 12.0098 168.415 12.6969 168.654 13.2052H166.561C166.408 12.9566 166.366 12.5354 166.366 12.1412L165.921 12.5061ZM170.555 13.2052H172.532V2.48682H170.555V13.2052ZM190.027 9.32602C189.06 9.6324 188.57 10.1715 188.57 11.002C188.57 11.6448 188.983 12.0826 189.461 12.0826C190.245 12.0826 191.272 11.1192 191.127 8.97611L190.027 9.32602ZM190.646 12.5061C190.114 12.9439 189.43 13.3817 188.746 13.3817C187.589 13.3817 186.621 12.5061 186.621 11.1643C186.621 9.77727 187.647 9.0054 189.373 8.50823L191.127 7.99761C191.019 7.32786 190.413 6.9059 189.77 6.9059C188.926 6.9059 188.33 7.21227 187.811 7.65007L187.172 6.73094C188.093 5.98757 189 5.73977 190.027 5.73977C191.39 5.73977 193.067 6.1744 193.067 8.45202V11.4255C193.067 12.0098 193.141 12.6969 193.378 13.2052H191.287C191.14 12.9566 191.091 12.5354 191.091 12.1412L190.646 12.5061ZM197.242 6.77448C197.911 6.07544 198.848 5.73977 199.783 5.73977C201.52 5.73977 202.44 6.67077 202.44 8.50823V13.2052H200.466V8.72911C200.466 7.70707 200.005 7.03573 198.98 7.03573C198.014 7.03573 197.257 7.66353 197.257 8.86052V13.2052H195.282V5.91315H197.242V6.77448ZM179.738 11.9773H180.807C181.966 11.9773 182.845 11.3804 182.845 10.2444C182.845 9.04736 181.938 8.53752 180.795 8.53752H179.738V11.9773ZM179.738 7.28352H180.395C181.599 7.28352 182.417 6.5259 182.417 5.5759C182.417 4.6734 181.73 4.28073 180.825 4.28073H179.737L179.738 7.28352ZM177.646 13.2329V3.02515H181.405C183.155 3.02515 184.39 3.81207 184.39 5.19748C184.39 6.8299 183.039 7.50282 182.311 7.69123V7.72052C183.604 7.7799 185.043 8.65311 185.043 10.2135C185.043 11.9773 183.541 13.2329 181.094 13.2329H177.646Z" fill="black"/>
</g>
<path opacity="0.4" fill-rule="evenodd" clip-rule="evenodd" d="M99.25 0H100.044V19H99.25V0Z" fill="black"/>
</svg>
