<svg width="107" height="28" viewBox="0 0 107 28" fill="none" xmlns="http://www.w3.org/2000/svg">
<path d="M34.2145 5.59912C33.9943 5.59912 33.8072 5.75692 33.7728 5.97179L31.2237 21.9279C31.2145 21.9862 31.2181 22.0457 31.2344 22.1025C31.2507 22.1593 31.2793 22.2119 31.3181 22.2567C31.357 22.3016 31.4052 22.3376 31.4595 22.3622C31.5137 22.3869 31.5728 22.3997 31.6326 22.3997H34.6555C34.8754 22.3997 35.0628 22.2416 35.0972 22.0271L35.846 17.3414C35.8801 17.1269 36.0675 16.9688 36.2877 16.9688H39.0361C42.2474 16.9688 44.9734 14.656 45.4713 11.5222C45.9733 8.36185 43.472 5.60598 39.9268 5.59912H34.2145ZM37.1531 9.16114H39.3521C41.1624 9.16114 41.752 10.2155 41.5656 11.3815C41.3792 12.5501 40.4636 13.4108 38.7123 13.4108H36.4741L37.1531 9.16114ZM51.6195 10.2458C50.8562 10.2486 49.9779 10.4029 48.9919 10.8084C46.73 11.7389 45.6438 13.6621 45.1825 15.0643C45.1825 15.0643 43.7143 19.342 47.0314 21.6921C47.0314 21.6921 50.1078 23.9546 53.5708 21.5527L53.5111 21.9279C53.5019 21.9861 53.5055 22.0456 53.5217 22.1024C53.538 22.1591 53.5665 22.2117 53.6053 22.2565C53.644 22.3013 53.6922 22.3373 53.7464 22.362C53.8006 22.3868 53.8596 22.3996 53.9193 22.3997H56.789C57.0092 22.3997 57.1963 22.2416 57.2307 22.0271L58.9763 11.1003C58.9857 11.042 58.9821 10.9824 58.9659 10.9256C58.9497 10.8688 58.9212 10.8161 58.8825 10.7712C58.8437 10.7263 58.7955 10.6903 58.7412 10.6655C58.687 10.6407 58.6279 10.6279 58.5681 10.6278H55.6984C55.4782 10.6278 55.2908 10.7859 55.2567 11.0005L55.1629 11.5886C55.1629 11.5886 53.9098 10.2373 51.6195 10.2458ZM51.7134 13.6971C52.0429 13.6971 52.3443 13.742 52.6148 13.8277C53.853 14.2201 54.555 15.3942 54.3518 16.6669C54.1013 18.234 52.7993 19.3878 51.1295 19.3878C50.8003 19.3878 50.4989 19.3432 50.2281 19.2575C48.9903 18.8651 48.2838 17.691 48.487 16.4183C48.7375 14.8513 50.0436 13.6971 51.7134 13.6971Z" fill="#003087"/>
<path d="M75.5426 5.59912C75.3224 5.59912 75.1354 5.75692 75.1009 5.97179L72.5519 21.9279C72.5426 21.9862 72.5463 22.0457 72.5625 22.1025C72.5788 22.1593 72.6074 22.2119 72.6462 22.2567C72.6851 22.3016 72.7333 22.3376 72.7876 22.3622C72.8419 22.3869 72.9009 22.3997 72.9607 22.3997H75.9837C76.2036 22.3997 76.3909 22.2416 76.4254 22.0271L77.1741 17.3414C77.2083 17.1269 77.3956 16.9688 77.6158 16.9688H80.3642C83.5755 16.9688 86.3012 14.656 86.7988 11.5222C87.3011 8.36185 84.8001 5.60598 81.2549 5.59912H75.5426ZM78.4812 9.16114H80.6802C82.4905 9.16114 83.0801 10.2155 82.8937 11.3815C82.7073 12.5501 81.792 13.4108 80.0404 13.4108H77.8023L78.4812 9.16114ZM92.9474 10.2458C92.184 10.2486 91.3057 10.4029 90.3197 10.8084C88.0578 11.7389 86.9716 13.6621 86.5103 15.0643C86.5103 15.0643 85.0427 19.342 88.3598 21.6921C88.3598 21.6921 91.4356 23.9546 94.899 21.5527L94.8392 21.9279C94.83 21.9862 94.8336 22.0457 94.8499 22.1025C94.8662 22.1593 94.8947 22.2119 94.9336 22.2567C94.9724 22.3016 95.0207 22.3376 95.075 22.3622C95.1292 22.3869 95.1883 22.3997 95.2481 22.3997H98.1175C98.3377 22.3997 98.5247 22.2416 98.5592 22.0271L100.305 11.1003C100.315 11.0419 100.311 10.9823 100.295 10.9254C100.279 10.8686 100.25 10.8159 100.211 10.771C100.172 10.7261 100.124 10.69 100.07 10.6653C100.016 10.6406 99.9564 10.6278 99.8966 10.6278H97.0268C96.8066 10.6278 96.6193 10.7859 96.5851 11.0005L96.4913 11.5886C96.4913 11.5886 95.2376 10.2373 92.9474 10.2458ZM93.0412 13.6971C93.3707 13.6971 93.6722 13.742 93.9426 13.8277C95.1808 14.2201 95.8828 15.3942 95.6797 16.6669C95.4291 18.234 94.1271 19.3878 92.4573 19.3878C92.1281 19.3878 91.8267 19.3432 91.556 19.2575C90.3181 18.8651 89.6116 17.691 89.8148 16.4183C90.0653 14.8513 91.3714 13.6971 93.0412 13.6971Z" fill="#0070E0"/>
<path d="M60.3399 10.6278C60.1124 10.6278 59.9507 10.847 60.0202 11.0606L63.1664 20.6973L60.3216 25.2385C60.1835 25.459 60.344 25.7437 60.6066 25.7437H63.9689C64.065 25.7436 64.1595 25.7191 64.2433 25.6724C64.327 25.6258 64.3971 25.5586 64.4469 25.4774L73.2336 11.1298C73.3685 10.9094 73.2074 10.6274 72.9464 10.6274H69.5845C69.4874 10.6275 69.392 10.6526 69.3077 10.7001C69.2233 10.7476 69.153 10.816 69.1036 10.8984L65.6449 16.6622L63.8893 10.9412C63.8321 10.755 63.658 10.6274 63.4611 10.6274L60.3399 10.6278Z" fill="#003087"/>
<path d="M103.563 5.59912C103.343 5.59912 103.156 5.75723 103.121 5.97179L100.572 21.9273C100.562 21.9856 100.566 22.0452 100.582 22.1021C100.598 22.1589 100.627 22.2116 100.666 22.2565C100.704 22.3014 100.753 22.3375 100.807 22.3622C100.861 22.3869 100.921 22.3997 100.98 22.3997H104.003C104.223 22.3997 104.411 22.2416 104.445 22.0271L106.994 6.07096C107.003 6.01273 107 5.9532 106.983 5.89648C106.967 5.83976 106.939 5.78718 106.9 5.74236C106.861 5.69753 106.813 5.66152 106.759 5.6368C106.705 5.61207 106.646 5.59922 106.586 5.59912H103.563Z" fill="#0070E0"/>
<path d="M9.01265 5.59912C8.81791 5.59928 8.62963 5.66798 8.48161 5.79288C8.33359 5.91777 8.23553 6.09068 8.20508 6.28053L6.86328 14.6807C6.92584 14.2884 7.26831 13.9993 7.67083 13.9993H11.6028C15.56 13.9993 18.9178 11.1498 19.5314 7.28844C19.577 7.00016 19.6029 6.70916 19.6088 6.41743C18.6032 5.89694 17.4218 5.59912 16.1274 5.59912H9.01265Z" fill="#001C64"/>
<path d="M19.608 6.41797C19.6021 6.7097 19.5762 7.0007 19.5306 7.28898C18.917 11.1504 15.5588 13.9998 11.6019 13.9998H7.67002C7.26782 13.9998 6.92503 14.2886 6.86247 14.6812L5.6287 22.4003L4.8559 27.2428C4.84082 27.3363 4.84647 27.432 4.87249 27.5232C4.8985 27.6144 4.94426 27.6989 5.00659 27.7709C5.06891 27.843 5.14633 27.9008 5.2335 27.9405C5.32067 27.9801 5.41551 28.0006 5.51149 28.0006H9.77927C9.974 28.0004 10.1623 27.9317 10.3103 27.8068C10.4583 27.6819 10.5564 27.509 10.5868 27.3192L11.7109 20.2815C11.7414 20.0916 11.8396 19.9186 11.9877 19.7937C12.1359 19.6688 12.3243 19.6001 12.5191 19.6001H15.0318C18.9891 19.6001 22.3469 16.7507 22.9605 12.8893C23.3962 10.1487 21.9978 7.65479 19.608 6.41797Z" fill="#0070E0"/>
<path d="M4.16481 0C3.76261 0 3.41982 0.288779 3.35727 0.680781L0.00824243 21.6425C-0.0552624 22.0404 0.256267 22.4003 0.664468 22.4003H5.6308L6.86393 14.6812L8.20574 6.28109C8.23619 6.09124 8.33424 5.91833 8.48226 5.79344C8.63028 5.66854 8.81857 5.59984 9.0133 5.59968H16.128C17.4228 5.59968 18.6038 5.89782 19.6095 6.41799C19.6783 2.90244 16.7394 0 12.6988 0H4.16481Z" fill="#003087"/>
</svg>
