<svg width="157" height="27" viewBox="0 0 157 27" fill="none" xmlns="http://www.w3.org/2000/svg">
<path d="M29.5883 22.6698H25.7383V9.06982H39.5983V22.6698H35.7483V11.7098H29.5883V22.6698Z" fill="#5DB12E"/>
<path d="M44.8409 17.7102C44.8409 14.9502 46.5409 14.4102 47.6209 14.4102C48.6709 14.4102 50.3709 14.9502 50.3709 17.7102C50.3709 19.4202 49.6509 21.0502 47.6209 21.0502C45.5409 21.0602 44.8409 19.4302 44.8409 17.7102ZM41.4609 12.8002V26.2702H45.0109V21.6602C46.2009 22.9402 48.1309 23.0402 48.6009 23.0402C51.9809 23.0402 54.0609 20.8802 54.0609 17.7502C54.0609 14.4902 52.0109 12.4302 48.6709 12.4302C47.8309 12.4302 46.2009 12.5702 44.8409 13.9902H44.7709L44.7909 12.8002H41.4609Z" fill="#5DB12E"/>
<path d="M62.8497 21.4898C61.5397 22.7098 60.2897 23.0398 58.8897 23.0398C55.0697 23.0398 54.9297 20.1598 54.9297 18.9798V12.7998H58.4697V18.5098C58.4697 20.4698 59.1497 21.0598 60.4497 21.0598C62.6897 21.0598 62.8497 19.0598 62.8497 18.3398V12.7998H66.3997V22.6698H62.8497V21.4898Z" fill="#5DB12E"/>
<path d="M71.4797 14.7798H73.3897C74.3897 14.7798 75.2597 14.9398 75.2597 15.7498C75.2597 16.6398 73.9097 16.6598 73.3297 16.6598H71.4897V14.7798H71.4797ZM67.9297 12.7998V22.6698H74.9697C77.5397 22.6698 79.3097 22.1598 79.3097 20.1398C79.3097 18.5898 78.4497 17.9098 76.4897 17.5598V17.4998C77.7697 17.3298 78.8897 16.5298 78.8897 15.1898C78.8897 12.7998 76.0897 12.7998 74.9997 12.7998H67.9297ZM71.4797 18.5098H73.6497C75.3297 18.5098 75.6797 19.0198 75.6797 19.6798C75.6797 20.1098 75.4497 20.6898 73.6997 20.6898H71.4897V18.5098H71.4797Z" fill="#5DB12E"/>
<path d="M87.8916 18.5902C87.8916 20.5702 86.1616 21.0602 85.3016 21.0602C84.6516 21.0602 83.4816 20.8502 83.4816 19.9102C83.4816 18.8002 84.8116 18.5902 85.5616 18.4902C86.9416 18.3002 86.8216 18.3502 87.8916 17.9702V18.5902ZM83.7916 15.9902C83.7916 14.5302 85.3316 14.4202 85.9616 14.4202C86.3616 14.4202 87.8316 14.4402 87.8716 15.7202C87.8716 15.8202 87.8716 15.8902 87.8716 15.9902C87.8016 16.9602 86.8716 16.7702 84.2616 17.1002C82.1116 17.3902 79.8516 17.9402 79.8516 20.1902C79.8516 21.0102 80.2016 23.0502 83.9816 23.0502C85.4316 23.0502 87.0116 22.6802 87.9416 21.7102H88.0116L88.3116 22.6802H92.0416V22.5002C91.3616 22.3602 91.3216 21.7002 91.3416 20.6302L91.4116 16.1202C91.4316 14.9702 91.3216 12.4302 85.9816 12.4302C84.7016 12.4302 80.5716 12.5502 80.4116 15.9902H83.7916Z" fill="#5DB12E"/>
<path d="M91.8086 14.7798V12.7998H103.189V14.7798H99.2686V22.6698H95.7186V14.7798H91.8086Z" fill="#5DB12E"/>
<path d="M107.721 16.7598H110.911C111.841 16.7598 113.711 16.8598 113.711 18.4898C113.711 19.7698 112.361 20.0298 110.841 20.0298H107.721V16.7598ZM107.721 11.7098H116.561V9.06982H103.871V22.6698H111.661C115.441 22.6698 117.861 21.3498 117.861 18.5698C117.861 14.2198 113.011 14.1198 111.661 14.1198H107.721V11.7098Z" fill="#5DB12E"/>
<path d="M126.581 18.5902C126.581 20.5702 124.851 21.0602 123.991 21.0602C123.341 21.0602 122.171 20.8502 122.171 19.9102C122.171 18.8002 123.501 18.5902 124.241 18.4902C125.621 18.3002 125.501 18.3502 126.571 17.9702V18.5902H126.581ZM122.481 15.9902C122.481 14.5302 124.021 14.4202 124.651 14.4202C125.051 14.4202 126.521 14.4402 126.561 15.7202C126.561 15.8202 126.561 15.8902 126.561 15.9902C126.491 16.9602 125.561 16.7702 122.941 17.1002C120.801 17.3902 118.531 17.9402 118.531 20.1902C118.531 21.0102 118.881 23.0502 122.661 23.0502C124.111 23.0502 125.691 22.6802 126.621 21.7102H126.691L126.991 22.6802H130.721V22.5002C130.051 22.3602 130.001 21.7002 130.021 20.6302L130.091 16.1202C130.111 14.9702 130.001 12.4302 124.661 12.4302C123.381 12.4302 119.251 12.5502 119.091 15.9902H122.481Z" fill="#5DB12E"/>
<path d="M135.161 22.6698H131.621V12.7998H135.161V16.5098H139.431V12.7998H142.971V22.6698H139.431V18.4898H135.161V22.6698Z" fill="#5DB12E"/>
<path d="M151.931 12.7998H155.871L151.001 17.4198L156.111 22.6698H151.961L148.141 18.3598H148.071V22.6698H144.531V12.7998H148.071V16.7698H148.141L151.931 12.7998Z" fill="#5DB12E"/>
<path d="M8.88 13.8301H0V22.7101H8.88V13.8301Z" fill="black"/>
<path d="M0.0117188 0V11.05H2.36172C8.54172 11.05 11.6717 14.18 11.6717 20.36V22.71H22.7217V0H0.0117188ZM18.0317 4.69C18.0317 7.71 18.0317 14.99 18.0317 18.01C17.1917 18.01 17.0417 18.01 16.2217 18.01C15.4317 11.43 11.2917 7.29 4.70172 6.51C4.70172 5.69 4.70172 5.54 4.70172 4.7C7.72172 4.69 15.0117 4.69 18.0317 4.69Z" fill="#5DB12E"/>
</svg>
