<svg width="54" height="54" viewBox="0 0 54 54" fill="none" xmlns="http://www.w3.org/2000/svg">
<path d="M8.78656 20.4944C6.94946 20.5338 5.35443 21.8863 5.36539 24.0459C5.37172 25.2999 6.3402 26.2911 7.28776 27.3368C8.75044 28.9507 9.17971 28.6659 9.11238 30.3018C9.08764 30.9005 8.09437 31.8357 7.0271 31.8332C5.44587 31.8303 4.34064 30.3124 4.7789 28.4772H4.32274L3.11719 32.8432H3.57334C3.70665 32.395 4.60775 32.4352 4.97439 32.4197C5.66501 32.3905 6.05915 32.9464 7.48325 32.941C9.43175 32.9337 11.3466 31.6593 11.328 29.2917C11.3185 28.0632 10.5646 27.2285 9.56854 26.2615C8.03636 24.7746 7.43911 24.0637 7.71133 22.873C7.93654 21.8876 8.64048 21.6115 9.34046 21.6022C10.6517 21.5855 11.216 22.9679 11.3932 24.4043H11.8167L12.892 20.7551H12.4358C12.3358 21.1862 11.8086 21.2079 11.3932 21.1787C11.206 21.1653 11.1004 21.2029 10.6438 21.0483C10.157 20.8833 9.3894 20.4818 8.78656 20.4944ZM13.3807 20.9832L13.2504 21.7C13.9702 21.7031 14.2299 21.687 14.2278 23.0359V32.8432C14.2278 32.8432 14.4177 33.2737 14.684 32.8432C14.9505 32.4125 19.2781 25.2515 19.2781 25.2515V25.4796L19.2456 32.8432C19.2456 32.8432 19.5211 33.2737 19.7995 32.8432C20.0779 32.4125 26.0553 22.5471 26.0553 22.5471C26.3279 22.0576 26.535 21.7168 27.2283 21.7L27.3912 20.9832H23.7094L23.579 21.7C24.3851 21.7015 24.9218 21.5746 24.9475 22.0584C24.9583 22.2613 24.9216 22.4241 24.7846 22.6775L21.7544 27.63L21.6893 27.5323V23.0359C21.6921 22.8337 21.6932 22.6343 21.6893 22.482C21.6693 21.7185 21.879 21.7015 22.4712 21.7L22.6016 20.9832H18.4962L18.3658 21.7C18.9841 21.7168 19.2543 21.8961 19.2456 22.4494V23.4594L16.6064 27.7278L16.5086 27.7929V23.0033C16.5088 22.8348 16.5102 22.5703 16.5086 22.3842C16.5061 22.1233 16.4491 21.7015 17.1929 21.7L17.3884 20.9832H13.3807ZM27.9451 20.9832L27.8148 21.7C28.1513 21.6825 28.4948 21.8097 28.5316 22.1887C28.5475 22.3538 28.4499 22.596 28.3687 22.9055L26.1205 31.2793C25.9878 31.8355 25.3187 32.1334 24.4262 32.1264L24.2959 32.8432H29.0855L29.2484 32.1264C28.4024 32.1093 28.4556 31.875 28.4664 31.5725C28.4731 31.3833 28.5646 31.2095 28.6293 30.986L30.9101 22.5797C31.1447 21.7934 31.7103 21.7175 32.5718 21.7L32.7348 20.9832H27.9451ZM33.3864 20.9832L33.2235 21.7C33.9371 21.754 34.95 21.7461 34.6897 22.5797C34.6329 22.762 34.6953 22.6783 34.6245 22.9707L32.4415 31.1164C32.2717 31.8725 31.7427 32.1092 31.1056 32.1264L30.9101 32.8432H35.993L36.1885 32.1264C35.0768 32.1236 34.6272 31.9747 34.8526 31.1164C34.9006 30.9335 34.9916 30.6096 35.0481 30.3344L36.0908 26.7503H36.3188C37.3124 26.7465 37.5929 26.8702 37.6221 27.4019C37.6405 27.7435 37.6312 28.0207 37.6547 28.2165H38.2086L39.0558 24.7302L38.5996 24.665C38.1298 25.8659 37.1276 25.8829 36.775 25.8706H36.3188L37.0357 23.0033C37.3474 21.944 37.4485 22.0028 38.2412 21.9932C39.6221 21.9767 40.4417 22.2031 40.3265 24.1437H40.7826L41.6298 20.9832H33.3864ZM42.2814 20.9832L41.4017 24.1437H41.923C42.1776 23.2609 42.1844 23.1125 42.705 22.6449C43.2396 22.1776 43.8141 21.9932 44.7251 21.9932L42.3466 30.6928C42.1818 32.1137 41.3642 32.1089 40.3265 32.1264L40.1636 32.8432H45.5397L45.67 32.1916C44.9821 32.2554 44.5586 31.8031 44.6926 31.2793C44.744 31.0777 44.8387 30.7785 44.9206 30.4321L47.1362 21.9932C48.8238 21.9922 49.1621 22.6697 49.0586 24.1437H49.5474L50.3945 20.9832H42.2814ZM21.9173 31.5073C21.635 31.5064 21.338 31.8589 21.2657 32.2893C21.1931 32.7198 21.3743 33.0704 21.6567 33.0713C21.9387 33.0726 22.2358 32.7198 22.3083 32.2893C22.3809 31.8592 22.1994 31.5086 21.9173 31.5073ZM30.2585 31.5073C29.9763 31.5064 29.6792 31.8589 29.6068 32.2893C29.5341 32.7198 29.7156 33.0704 29.9978 33.0713C30.28 33.0726 30.5771 32.7198 30.6495 32.2893C30.7222 31.8592 30.5407 31.5086 30.2585 31.5073ZM37.4266 31.5073C37.1444 31.5064 36.8474 31.8589 36.775 32.2893C36.7023 32.7198 36.8512 33.0704 37.1334 33.0713C37.4156 33.0726 37.7127 32.7198 37.785 32.2893C37.8577 31.8592 37.7088 31.5086 37.4266 31.5073ZM11.7516 31.5399C11.4695 31.5386 11.2049 31.8915 11.1325 32.3219C11.06 32.7524 11.2089 33.1026 11.4909 33.1039C11.7731 33.1052 12.0702 32.7524 12.1426 32.3219C12.2151 31.8915 12.0338 31.5412 11.7516 31.5399ZM47.0059 31.5399C46.7237 31.539 46.4266 31.8914 46.3543 32.3219C46.2816 32.7524 46.463 33.1029 46.7453 33.1039C47.0274 33.1052 47.3245 32.7524 47.3969 32.3219C47.4696 31.8918 47.2881 31.5412 47.0059 31.5399Z" fill="#3C60A7" stroke="#3C60A7" stroke-width="0.180594"/>
<path d="M2.21432 18.3847H51.8279M2.21432 35.6134H51.8279M7.4967 44.5528H46.5049M7.4967 9.44528H46.5049M26.9603 18.3847V0.749672M26.9603 35.6134V53.2078M27.6817 0.779781C27.6817 0.779781 38.3684 6.54977 40.4813 18.3336M26.2955 0.789026C26.2955 0.789026 15.4028 6.48216 13.2007 18.2498M26.2522 53.1269C26.2522 53.1269 15.4843 47.4162 13.3713 35.6325M27.7702 53.1281C27.7702 53.1281 38.5007 47.494 40.7026 35.7264M27.0009 0.731568C12.5053 0.731568 0.753906 12.483 0.753906 26.9787C0.753906 41.4742 12.5053 53.2256 27.0009 53.2256C41.4965 53.2256 53.2482 41.4742 53.2482 26.9787C53.2482 12.483 41.4965 0.731568 27.0009 0.731568Z" stroke="#3C60A7" stroke-width="1.62535"/>
</svg>
