<svg width="123" height="27" viewBox="0 0 123 27" fill="none" xmlns="http://www.w3.org/2000/svg">
<path d="M52.6968 17.8794H55.7146V20.3563H51.8233C51.0378 20.3498 50.2867 20.0337 49.7335 19.477C49.1804 18.9203 48.8701 18.168 48.8701 17.384V2.63127H51.7935V6.26742H54.9949V8.74437H51.7935V16.9729C51.7935 17.2123 51.8886 17.4422 52.0578 17.6121C52.2271 17.7819 52.4567 17.8781 52.6968 17.8794ZM20.2715 15.1597C20.2715 17.0174 19.1251 18.2756 17.3481 18.2756C15.5712 18.2756 14.3702 17.0174 14.3702 15.1597V6.26742H11.4716V15.1597C11.4716 17.0174 10.2954 18.2756 8.51846 18.2756C6.74154 18.2756 5.60008 16.9926 5.60008 15.1597V6.26742H0.636719V8.74437H2.62195V15.0457C2.62195 18.3946 4.7711 20.5941 8.08167 20.5941C10.3152 20.5941 12.0523 19.6034 12.9259 17.9339C13.7895 19.6181 15.5416 20.609 17.7749 20.609C21.0707 20.609 23.2347 18.4093 23.2347 15.0606V6.26742H20.2715V15.1597ZM44.0409 0.743828C43.8015 0.721575 43.5602 0.749409 43.3323 0.825562C43.1044 0.901715 42.895 1.02449 42.7174 1.18604C42.5396 1.34761 42.3977 1.54439 42.3006 1.76382C42.2036 1.98323 42.1533 2.22048 42.1533 2.46036C42.1533 2.70022 42.2036 2.93746 42.3006 3.15688C42.3977 3.37631 42.5396 3.5731 42.7174 3.73465C42.895 3.8962 43.1044 4.01898 43.3323 4.09513C43.5602 4.17129 43.8015 4.19912 44.0409 4.17687C44.2801 4.19912 44.5215 4.17129 44.7494 4.09513C44.9771 4.01898 45.1868 3.8962 45.3644 3.73465C45.542 3.5731 45.6839 3.37631 45.781 3.15688C45.8781 2.93746 45.9282 2.70022 45.9282 2.46036C45.9282 2.22048 45.8781 1.98323 45.781 1.76382C45.6839 1.54439 45.542 1.34761 45.3644 1.18604C45.1868 1.02449 44.9771 0.901715 44.7494 0.825562C44.5215 0.749409 44.2801 0.721575 44.0409 0.743828ZM33.6923 6.00982C32.8071 5.97362 31.9284 6.17459 31.1471 6.59187C30.366 7.00912 29.711 7.62748 29.2501 8.38273V0.545672H26.3267V20.3612H29.2501V12.0982C29.2501 9.83919 30.6548 8.35301 32.8338 8.35301C35.0125 8.35301 36.3081 9.83919 36.3081 12.0982V20.3366H39.286V11.6919C39.286 8.28861 36.9333 5.99991 33.6973 5.99991L33.6923 6.00982ZM42.5866 20.3266H45.505V6.26742H42.5866V20.3266ZM106.524 13.292V20.3266H103.596V18.3946C102.942 19.1145 102.14 19.685 101.245 20.0671C100.349 20.4493 99.3821 20.6341 98.4089 20.609C94.4382 20.609 91.5594 17.5474 91.5594 13.3168C91.5594 9.08619 94.6815 6.02468 99.0392 6.02468C103.397 6.02468 106.519 9.08123 106.519 13.3168L106.524 13.292ZM103.591 13.3168C103.591 10.5724 101.704 8.56603 99.0639 8.56603C96.4236 8.56603 94.5673 10.5724 94.5673 13.3168C94.5673 16.0612 96.4582 18.0627 99.0639 18.0627C101.67 18.0627 103.591 16.0811 103.591 13.3168ZM74.2077 3.17123L75.4635 4.75649C77.3516 3.29255 79.6756 2.49993 82.0665 2.50442C84.4575 2.50891 86.7783 3.31023 88.661 4.78124L89.9166 3.196C87.6655 1.46505 84.9039 0.526367 82.0623 0.526367C79.2207 0.526367 76.4588 1.46505 74.2077 3.196V3.17123ZM89.5494 13.4506C89.5494 17.597 86.6012 20.6586 82.4469 20.6586C81.5091 20.6737 80.5799 20.4801 79.7264 20.0919C78.873 19.7038 78.1171 19.1307 77.5133 18.4143V26.0583H74.5899V13.3218C74.5899 9.09114 77.7118 6.02964 82.0696 6.02964C86.4275 6.02964 89.5444 9.09114 89.5444 13.4109L89.5494 13.4506ZM86.5367 13.3218C86.5367 10.5476 84.6456 8.57594 82.0399 8.57594C79.4342 8.57594 77.5133 10.5575 77.5133 13.3218C77.5133 16.0861 79.4044 18.0726 82.0399 18.0726C84.6754 18.0726 86.5367 16.0911 86.5367 13.3218ZM119.414 6.26742V13.9013C119.414 16.1603 118.009 17.6515 115.835 17.6515C113.661 17.6515 112.336 16.1653 112.336 13.9013V6.26742H107.407V8.74437H109.393V14.3026C109.393 17.706 111.745 19.9947 114.927 19.9947C115.812 20.0326 116.692 19.8359 117.477 19.4243C118.261 19.0128 118.923 18.4011 119.394 17.6515V20.282C119.394 22.541 118.019 23.9677 115.919 23.9677C115.138 23.9976 114.372 23.7441 113.764 23.2543C113.155 22.7643 112.745 22.0709 112.609 21.3026H109.859C110.39 24.3144 112.743 26.3158 116.034 26.3158C119.816 26.3158 122.367 23.8389 122.367 20.1087V6.26742H119.414ZM72.3218 13.3317C72.3207 13.6293 72.2924 13.926 72.2373 14.2184H60.2014C60.3492 15.3339 60.9047 16.3556 61.7613 17.0871C62.6178 17.8186 63.7151 18.2084 64.8421 18.1815C65.6418 18.1839 66.4277 17.9718 67.1176 17.5675C67.8073 17.1632 68.3756 16.5814 68.763 15.8829H71.8553C71.3032 17.2928 70.3331 18.5011 69.0745 19.3457C67.8158 20.1903 66.3288 20.6309 64.8123 20.609C60.4594 20.609 57.278 17.5474 57.278 13.3168C57.278 9.08619 60.4594 6.02468 64.8123 6.02468C69.165 6.02468 72.292 9.08123 72.3218 13.3465V13.3317ZM69.4828 11.9743C69.2381 10.9394 68.6424 10.0207 67.7965 9.37426C66.9507 8.72775 65.9068 8.39319 64.8421 8.42732C63.7894 8.40444 62.7614 8.74488 61.9311 9.39113C61.101 10.0374 60.5197 10.9498 60.2857 11.9743H69.4828Z" fill="#0041A5"/>
</svg>
