<svg width="22" height="22" viewBox="0 0 22 22" fill="none" xmlns="http://www.w3.org/2000/svg">
<g clip-path="url(#clip0_349_402)">
<rect x="0.601562" y="5.3999" width="20.8" height="8.8" fill="#FFD402"/>
<path d="M12.7399 13.344C12.2224 13.689 11.6213 13.8714 11.0016 13.8714C10.3819 13.8714 9.78078 13.689 9.2633 13.344L0.740053 7.66171C0.692766 7.63018 0.646697 7.59732 0.601562 7.56352V16.8746C0.601562 17.9422 1.46789 18.7894 2.51634 18.7894H19.4867C20.5543 18.7894 21.4015 17.9231 21.4015 16.8746V7.56348C21.3563 7.59736 21.3102 7.63031 21.2627 7.66187L12.7399 13.344Z" fill="#2E2C7E"/>
<path d="M1.41609 6.64749L9.93934 12.3299C10.262 12.545 10.6318 12.6525 11.0015 12.6525C11.3713 12.6525 11.7411 12.5449 12.0638 12.3299L20.587 6.64749C21.0971 6.30766 21.4016 5.73891 21.4016 5.12507C21.4016 4.06959 20.5429 3.21094 19.4874 3.21094H2.51569C1.46025 3.21098 0.601562 4.06963 0.601562 5.12608C0.601562 5.73891 0.906087 6.30766 1.41609 6.64749Z" fill="#2E2C7E"/>
</g>
<defs>
<clipPath id="clip0_349_402">
<rect width="20.8" height="20.8" fill="white" transform="translate(0.601562 0.600098)"/>
</clipPath>
</defs>
</svg>
