<svg width="24" height="24" viewBox="0 0 24 24" fill="none" xmlns="http://www.w3.org/2000/svg">
<g clip-path="url(#clip0_349_375)">
<path d="M14.143 11.9997C14.143 13.1837 13.1832 14.1435 11.9992 14.1435C10.8152 14.1435 9.85547 13.1837 9.85547 11.9997C9.85547 10.8157 10.8152 9.85596 11.9992 9.85596C13.1832 9.85596 14.143 10.8157 14.143 11.9997Z" fill="#FFD402"/>
<path d="M17.0165 8.20701C16.9135 7.92776 16.749 7.675 16.5354 7.46753C16.328 7.25391 16.0754 7.0895 15.7959 6.98645C15.5693 6.89844 15.2289 6.79368 14.6019 6.76514C13.9236 6.7342 13.7202 6.72754 12.003 6.72754C10.2857 6.72754 10.0823 6.73403 9.40417 6.76497C8.77715 6.79368 8.43655 6.89844 8.21011 6.98645C7.93069 7.0895 7.67793 7.25391 7.47063 7.46753C7.25701 7.675 7.0926 7.92759 6.98938 8.20701C6.90137 8.43362 6.79661 8.77422 6.76807 9.40125C6.73713 10.0794 6.73047 10.2827 6.73047 12.0001C6.73047 13.7173 6.73713 13.9207 6.76807 14.5989C6.79661 15.226 6.90137 15.5664 6.98938 15.793C7.0926 16.0724 7.25684 16.325 7.47046 16.5325C7.67793 16.7461 7.93052 16.9105 8.20994 17.0136C8.43655 17.1018 8.77715 17.2065 9.40417 17.2351C10.0823 17.266 10.2855 17.2725 12.0029 17.2725C13.7204 17.2725 13.9238 17.266 14.6017 17.2351C15.2287 17.2065 15.5693 17.1018 15.7959 17.0136C16.3568 16.7972 16.8001 16.3539 17.0165 15.793C17.1045 15.5664 17.2093 15.226 17.238 14.5989C17.2689 13.9207 17.2754 13.7173 17.2754 12.0001C17.2754 10.2827 17.2689 10.0794 17.238 9.40125C17.2094 8.77422 17.1047 8.43362 17.0165 8.20701ZM12.003 15.3024C10.179 15.3024 8.70042 13.8239 8.70042 11.9999C8.70042 10.1759 10.179 8.69749 12.003 8.69749C13.8269 8.69749 15.3055 10.1759 15.3055 11.9999C15.3055 13.8239 13.8269 15.3024 12.003 15.3024ZM15.436 9.3387C15.0098 9.3387 14.6643 8.99314 14.6643 8.56692C14.6643 8.1407 15.0098 7.79514 15.436 7.79514C15.8623 7.79514 16.2078 8.1407 16.2078 8.56692C16.2076 8.99314 15.8623 9.3387 15.436 9.3387Z" fill="#2E2C7E"/>
<path d="M12.0008 0.799805C5.81614 0.799805 0.800781 5.81516 0.800781 11.9998C0.800781 18.1844 5.81614 23.1998 12.0008 23.1998C18.1854 23.1998 23.2008 18.1844 23.2008 11.9998C23.2008 5.81516 18.1854 0.799805 12.0008 0.799805ZM18.3932 14.6513C18.3621 15.3359 18.2533 15.8033 18.0943 16.2125C17.7602 17.0763 17.0773 17.7593 16.2134 18.0934C15.8045 18.2523 15.3369 18.361 14.6524 18.3923C13.9666 18.4235 13.7475 18.4311 12.001 18.4311C10.2542 18.4311 10.0353 18.4235 9.34929 18.3923C8.66484 18.361 8.19727 18.2523 7.78831 18.0934C7.35901 17.9319 6.97039 17.6788 6.6491 17.3515C6.322 17.0304 6.0689 16.6416 5.9074 16.2125C5.74846 15.8035 5.6396 15.3359 5.6085 14.6515C5.57688 13.9655 5.56953 13.7464 5.56953 11.9998C5.56953 10.2532 5.57688 10.0341 5.60833 9.34832C5.63943 8.6637 5.74812 8.19629 5.90706 7.78716C6.06855 7.35803 6.32183 6.96924 6.6491 6.64812C6.97021 6.32085 7.35901 6.06775 7.78813 5.90625C8.19727 5.74731 8.66467 5.63862 9.34929 5.60735C10.0351 5.57607 10.2542 5.56855 12.0008 5.56855C13.7474 5.56855 13.9665 5.57607 14.6523 5.60752C15.3369 5.63862 15.8043 5.74731 16.2134 5.90608C16.6426 6.06758 17.0313 6.32085 17.3526 6.64812C17.6797 6.96941 17.933 7.35803 18.0943 7.78716C18.2534 8.19629 18.3621 8.6637 18.3934 9.34832C18.4247 10.0341 18.432 10.2532 18.432 11.9998C18.432 13.7464 18.4247 13.9655 18.3932 14.6513Z" fill="#2E2C7E"/>
</g>
<defs>
<clipPath id="clip0_349_375">
<rect width="22.4" height="22.4" fill="white" transform="translate(0.800781 0.799805)"/>
</clipPath>
</defs>
</svg>
