<svg width="22" height="22" viewBox="0 0 22 22" fill="none" xmlns="http://www.w3.org/2000/svg">
<g clip-path="url(#clip0_349_383)">
<path d="M6.20312 12.2003L7.40312 9.80029L11.8031 6.60029L18.6031 3.80029L18.2031 7.00029L15.0031 12.2003L9.00312 16.2003L7.80312 16.6003L7.00312 14.2003L6.20312 12.2003Z" fill="#FFD402"/>
<path d="M0.968952 10.6284L5.76169 12.4172L7.61677 18.3832C7.73547 18.7653 8.20271 18.9065 8.51283 18.6529L11.1844 16.475C11.4644 16.2469 11.8633 16.2355 12.156 16.4479L16.9745 19.9463C17.3062 20.1874 17.7763 20.0056 17.8595 19.6047L21.3893 2.62564C21.4801 2.18773 21.0498 1.82241 20.6329 1.98368L0.963336 9.57159C0.477933 9.75879 0.482163 10.446 0.968952 10.6284ZM7.31781 11.465L16.6846 5.696C16.8529 5.59262 17.0261 5.82024 16.8816 5.95433L9.15126 13.14C8.87954 13.393 8.70426 13.7315 8.65462 14.0989L8.39129 16.0503C8.35642 16.3109 7.99041 16.3367 7.91851 16.0846L6.90576 12.526C6.78976 12.1201 6.9588 11.6866 7.31781 11.465Z" fill="#2E2C7E"/>
</g>
<defs>
<clipPath id="clip0_349_383">
<rect width="20.8" height="20.8" fill="white" transform="translate(0.601562 0.600098)"/>
</clipPath>
</defs>
</svg>
