<svg width="20" height="22" viewBox="0 0 20 22" fill="none" xmlns="http://www.w3.org/2000/svg">
<path d="M12.7992 10.2003L9.99922 6.60029L9.19922 4.20029L9.59922 2.60029L11.5992 1.80029L14.7992 3.00029L17.1992 8.20029L16.7992 11.0003L12.7992 10.2003Z" fill="#FFD402" stroke="black"/>
<path d="M12.0492 0.760254H7.95316C4.01076 0.760254 0.785156 3.98585 0.785156 7.92825V11.0003C0.785156 13.7651 2.39796 16.2995 4.88116 17.4771V20.9075C4.88116 21.2147 5.26516 21.3683 5.46996 21.1379L8.43956 18.1683H12.0492C15.9916 18.1683 19.2172 14.9427 19.2172 11.0003V7.92825C19.2172 3.98585 15.9916 0.760254 12.0492 0.760254ZM14.7372 14.2003L13.6876 15.2243C12.5868 16.2995 9.74516 15.0707 7.23636 12.5107C4.72756 9.95065 3.62676 7.08345 4.67636 6.00825L5.70036 4.98425C6.08436 4.60025 6.72436 4.62585 7.15956 5.00985L8.64436 6.54585C9.18196 7.08345 8.95156 8.00505 8.26036 8.20985C7.77396 8.36345 7.44116 8.90105 7.59476 9.38745C7.85076 10.5139 9.28436 11.9475 10.3596 12.2291C10.846 12.3315 11.3836 12.0755 11.5628 11.5891C11.7932 10.8979 12.7148 10.6931 13.2268 11.2307L14.7116 12.7667C15.1212 13.1251 15.1212 13.7651 14.7372 14.2003ZM10.9228 5.62425C10.8204 5.62425 10.718 5.62425 10.6156 5.64985C10.4364 5.67545 10.2572 5.52185 10.2316 5.34265C10.206 5.16345 10.3596 4.98425 10.5388 4.95865C10.6668 4.93305 10.7948 4.93305 10.9228 4.93305C12.7916 4.93305 14.3276 6.46905 14.3276 8.33785C14.3276 8.46585 14.3276 8.59385 14.302 8.72185C14.2764 8.90105 14.0972 9.05465 13.918 9.02905C13.7388 9.00345 13.5852 8.82425 13.6108 8.64505C13.6108 8.54265 13.6364 8.44025 13.6364 8.33785C13.662 6.85305 12.4332 5.62425 10.9228 5.62425ZM12.9708 8.36345C12.9708 8.54265 12.8172 8.69625 12.638 8.69625C12.4588 8.69625 12.3052 8.54265 12.3052 8.36345C12.3052 7.62105 11.6908 7.00665 10.9484 7.00665C10.7692 7.00665 10.6156 6.85305 10.6156 6.67385C10.6156 6.49465 10.7692 6.34105 10.9484 6.34105C12.0492 6.31545 12.9708 7.23705 12.9708 8.36345ZM15.582 9.46425C15.5308 9.64345 15.3516 9.77145 15.1468 9.72025C14.9676 9.66905 14.8652 9.48985 14.9164 9.31065C14.9932 9.00345 15.0188 8.69625 15.0188 8.36345C15.0188 6.11065 13.1756 4.26745 10.9228 4.26745C10.8204 4.26745 10.718 4.26745 10.6156 4.26745C10.4364 4.26745 10.2572 4.13945 10.2572 3.96025C10.2572 3.78105 10.3852 3.60185 10.5644 3.60185C10.6924 3.60185 10.8204 3.57625 10.9228 3.57625C13.5596 3.57625 15.71 5.72665 15.71 8.36345C15.71 8.72185 15.6588 9.10585 15.582 9.46425Z" fill="#2E2C7E"/>
</svg>
