<svg width="130" height="75" viewBox="0 0 130 75" fill="none" xmlns="http://www.w3.org/2000/svg">
<path d="M29.0518 65.8732C29.0842 65.1596 28.7274 64.3811 27.9489 63.5702C25.7756 61.3319 21.5587 60.7481 17.8283 60.2291C16.9525 60.0993 16.1091 60.002 15.3306 59.8722C11.7949 59.2559 2.32303 56.7582 0.928204 52.5737C0.798452 52.1845 0.928204 51.7628 0.928204 51.3735L1.38233 42.4531C1.34989 42.8748 1.41477 43.2641 1.54452 43.6533C2.93935 47.8378 12.249 50.3031 15.7523 50.9194C16.5308 51.0492 17.3742 51.1789 18.25 51.2762C21.9804 51.7952 26.1973 52.3791 28.3706 54.6173C29.1491 55.4283 29.5384 56.2068 29.4735 56.9204L29.0518 65.8732Z" fill="url(#paint0_linear_337_1895)"/>
<path d="M28.6035 74.7612C28.636 74.0476 28.2792 73.2691 27.5006 72.4581C25.3273 70.2199 21.1104 69.636 17.38 69.117C16.5042 68.9873 15.6608 68.89 14.8823 68.7602C11.3466 68.1439 1.87475 65.6462 0.479927 61.4617C0.350176 61.0724 0.285297 60.6508 0.317736 60.2615L0.934063 51.3735C0.901625 51.7952 0.804312 52.1845 0.934063 52.5737C2.32889 56.7582 11.8007 59.2559 15.3365 59.8723C16.115 60.002 16.9583 60.1318 17.8342 60.2291C21.5645 60.7481 25.7814 61.332 27.9548 63.5702C28.7333 64.3811 30.0704 64.2767 30.0055 64.9904L28.6035 74.7612Z" fill="url(#paint1_linear_337_1895)"/>
<mask id="mask0_337_1895" style="mask-type:alpha" maskUnits="userSpaceOnUse" x="0" y="30" width="69" height="22">
<path d="M68.1513 39.3747C68.1513 39.472 68.1513 39.5693 68.1189 39.6667C67.9243 40.8669 66.9836 41.7427 65.2968 42.3266C60.6906 43.9484 52.0297 43.6889 47.6831 43.5592C46.8072 43.5268 46.1261 43.5268 45.6719 43.5268C42.1362 43.5268 38.568 43.3646 35.1296 43.2024C29.2259 42.9104 23.0952 42.6185 16.9969 43.1699C14.7587 43.3646 11.3203 43.8511 8.17379 44.954C6.45458 45.5703 4.83269 46.3488 3.56761 47.3869C1.88084 48.7492 1.00503 50.0792 0.940155 51.3767L1.39429 42.4239C1.45916 41.1264 2.33498 39.7964 4.02175 38.434C5.28683 37.396 6.90871 36.6175 8.62791 36.0012C11.7744 34.8983 15.2128 34.4117 17.451 34.2171C23.5493 33.6657 29.6801 33.9576 35.5838 34.2495C39.0222 34.4117 42.6228 34.5739 46.1261 34.5739C46.5802 34.5739 47.2614 34.6064 48.1372 34.6064C52.5163 34.7361 61.1772 34.9956 65.7509 33.3737C67.4377 32.7898 68.3784 31.8816 68.573 30.7138C68.573 30.6165 68.6055 30.5192 68.6055 30.4219L68.1513 39.3747Z" fill="url(#paint2_linear_337_1895)"/>
</mask>
<g mask="url(#mask0_337_1895)">
<path d="M68.1513 39.3747C68.1513 39.472 68.1513 39.5693 68.1189 39.6667C67.9243 40.8669 66.9836 41.7427 65.2968 42.3266C60.6906 43.9484 52.0297 43.6889 47.6831 43.5592C46.8072 43.5268 46.1261 43.5268 45.6719 43.5268C42.1362 43.5268 38.568 43.3646 35.1296 43.2024C29.2259 42.9104 23.0952 42.6185 16.9969 43.1699C14.7587 43.3646 11.3203 43.8511 8.17379 44.954C6.45458 45.5703 4.83269 46.3488 3.56761 47.3869C1.88084 48.7492 1.00503 50.0792 0.940155 51.3767L1.39429 42.4239C1.45916 41.1264 2.33498 39.7964 4.02175 38.434C5.28683 37.396 6.90871 36.6175 8.62791 36.0012C11.7744 34.8983 15.2128 34.4117 17.451 34.2171C23.5493 33.6657 29.6801 33.9576 35.5838 34.2495C39.0222 34.4117 42.6228 34.5739 46.1261 34.5739C46.5802 34.5739 47.2614 34.6064 48.1372 34.6064C52.5163 34.7361 61.1772 34.9956 65.7509 33.3737C67.4377 32.7898 68.3784 31.8816 68.573 30.7138C68.573 30.6165 68.6055 30.5192 68.6055 30.4219L68.1513 39.3747Z" fill="url(#paint3_linear_337_1895)"/>
<path d="M64.8427 51.2145C60.2365 52.8364 51.5756 52.5769 47.2289 52.4472C46.3531 52.4147 45.6719 52.4147 45.2178 52.4147C41.6821 52.4147 38.1139 52.2525 34.6755 52.0903C28.7718 51.7984 22.6411 51.5065 16.5428 52.0579C14.3045 52.2525 10.8661 52.7391 7.71967 53.842C6.00046 54.4583 4.37856 55.2368 3.11349 56.2748C1.42673 57.6372 0.550903 58.9672 0.486023 60.2647L1.10235 51.3767L1.39429 42.4239C1.45917 41.1264 2.33499 39.7964 4.02176 38.434C5.28683 37.396 6.90872 36.6175 8.62792 36.0012C11.7744 34.8983 15.2128 34.4117 17.451 34.2171C23.5493 33.6657 29.6801 33.9576 35.5838 34.2495C39.0222 34.4117 42.6228 34.5739 46.1261 34.5739C46.5802 34.5739 47.2614 34.6064 48.1372 34.6064C52.5163 34.7361 61.1772 34.9956 65.7509 33.3737C67.4377 32.7898 68.3784 31.8816 68.573 30.7138C68.6055 30.6165 68.6055 30.5192 68.6055 30.4219L68.1513 39.3747L67.8918 48.2951C67.8918 48.3924 67.8918 48.4897 67.8594 48.5871C67.6648 49.7548 66.5294 50.6306 64.8427 51.2145Z" fill="url(#paint4_linear_337_1895)"/>
</g>
<path d="M67.8889 48.2617C67.8889 48.359 67.8889 48.4563 67.8565 48.5537C67.6619 49.7539 66.5265 50.5972 64.8398 51.1811C60.2336 52.803 51.5727 52.5435 47.226 52.4138C46.3502 52.3813 45.669 52.3813 45.2149 52.3813C41.6792 52.3813 38.111 52.2191 34.6726 52.0569C28.7689 51.765 22.6382 51.4731 16.5398 52.0245C14.3016 52.2191 10.8632 52.7057 7.71675 53.8086C5.99755 54.4249 4.37566 55.2034 3.11058 56.2414C1.42381 57.6038 0.547989 58.9338 0.483116 60.2313L0.937248 51.3433C1.00213 50.0458 1.87794 48.7158 3.5647 47.3535C4.82978 46.3154 6.45168 45.5369 8.17088 44.9206C11.3174 43.8177 14.7558 43.3312 16.994 43.1365C23.0923 42.5851 29.223 42.877 35.1267 43.169C38.5651 43.3312 42.1657 43.4934 45.669 43.4934C46.1232 43.4934 46.8043 43.5258 47.6802 43.5258C52.0593 43.6555 60.7202 43.915 65.2939 42.2931C66.9807 41.7093 67.9214 40.8334 68.116 39.6332C68.1484 39.5359 68.1484 39.4386 68.1484 39.3413L67.8889 48.2617Z" fill="url(#paint5_linear_337_1895)"/>
<path d="M64.8349 51.2135C60.2287 52.8354 51.5678 52.5759 47.2211 52.4462C46.3453 52.4137 45.6641 52.4137 45.21 52.4137C41.6743 52.4137 38.1061 52.2516 34.6677 52.0894C28.764 51.7974 22.6332 51.5055 16.5349 52.0569C14.2967 52.2516 10.8583 52.7381 7.71185 53.841C5.99265 54.4573 4.37075 55.2358 3.10567 56.2738C1.41891 57.6362 0.543091 58.9662 0.47821 60.2637L1.09454 51.3757L1.38647 42.4229C1.45135 41.1254 2.32718 39.7954 4.01395 38.433C5.27902 37.395 6.90091 36.6165 8.62011 36.0002C11.7666 34.8973 15.205 34.4108 17.4432 34.2161C23.5415 33.6647 29.6723 33.9566 35.5759 34.2486C39.0144 34.4108 42.615 34.5729 46.1182 34.5729C46.5724 34.5729 47.2536 34.6054 48.1294 34.6054C52.5085 34.7351 61.1694 34.9946 65.7431 33.3727C67.4299 32.7889 68.3706 31.8806 68.5652 30.7128C68.5977 30.6155 68.5977 30.5182 68.5977 30.4209L68.1435 39.3737L67.884 48.2941C67.884 48.3915 67.884 48.4888 67.8516 48.5861C67.657 49.7538 66.5216 50.6297 64.8349 51.2135Z" fill="url(#paint6_linear_337_1895)"/>
<path d="M68.16 39.3733C68.1925 38.6921 67.9654 38.0757 67.4788 37.5567C65.1433 35.059 57.3907 34.832 53.2386 34.7347C52.3304 34.7022 51.5518 34.7022 51.0004 34.6373C50.5463 34.6049 49.9624 34.5725 49.3136 34.54C43.5721 34.1832 31.6675 33.4696 28.4237 29.35C27.8398 28.6039 27.5803 27.7605 27.6127 26.8523L28.0669 17.8994C28.0344 18.8077 28.2939 19.6511 28.8778 20.3971C32.0891 24.5167 44.0263 25.2628 49.7678 25.5872C50.4165 25.6196 50.968 25.6521 51.4545 25.6845C52.006 25.7169 52.7845 25.7494 53.6927 25.7818C57.8772 25.9116 65.6299 26.1062 67.933 28.6039C68.4195 29.1229 68.6466 29.7392 68.6141 30.4204L68.16 39.3733Z" fill="url(#paint7_linear_337_1895)"/>
<path d="M67.0247 46.4447C64.6892 43.947 56.9365 43.7199 52.7845 43.6226C51.8762 43.5902 51.0977 43.5902 50.5463 43.5253C50.0921 43.4929 49.5083 43.4604 48.8595 43.428C43.118 43.0712 31.2133 42.3575 27.9695 38.2379C27.3857 37.4919 27.1262 36.6485 27.1586 35.7402L27.6127 26.8523L28.0668 17.8994C28.0344 18.8077 28.2939 19.6511 28.8778 20.3971C32.0891 24.5167 44.0263 25.2628 49.7678 25.5872C50.4165 25.6196 50.968 25.6521 51.4545 25.6845C52.006 25.7169 52.7845 25.7494 53.6927 25.7818C57.8448 25.9116 65.6299 26.1062 67.933 28.6039C68.4195 29.1229 68.6466 29.7392 68.6141 30.4204L68.16 39.3733L67.8681 48.2937C67.933 47.6125 67.5113 46.9637 67.0247 46.4447Z" fill="url(#paint8_linear_337_1895)"/>
<mask id="mask1_337_1895" style="mask-type:alpha" maskUnits="userSpaceOnUse" x="27" y="26" width="42" height="23">
<path d="M67.8964 48.2935C67.9289 47.6123 67.5396 46.9635 67.053 46.4445C64.7175 43.9468 56.9649 43.7197 52.8128 43.6224C51.9046 43.59 51.1261 43.59 50.5746 43.5251C50.1205 43.4927 49.5366 43.4602 48.8879 43.4278C43.1464 43.071 31.2417 42.3573 27.9979 38.2377C27.414 37.4917 27.1545 36.6483 27.1869 35.74L27.6411 26.8521C27.6086 27.7603 27.8681 28.6037 28.452 29.3498C31.6634 33.4694 43.6005 34.2154 49.342 34.5398C49.9907 34.5723 50.5422 34.6047 51.0288 34.6371C51.5802 34.6696 52.3587 34.702 53.267 34.7344C57.419 34.8642 65.2041 35.0588 67.5072 37.5565C67.9937 38.0755 68.2208 38.6919 68.1884 39.373L67.8964 48.2935Z" fill="url(#paint9_linear_337_1895)"/>
</mask>
<g mask="url(#mask1_337_1895)">
<path d="M67.8964 48.2935C67.9289 47.6123 67.5396 46.9635 67.053 46.4445C64.7175 43.9468 56.9649 43.7197 52.8128 43.6224C51.9046 43.59 51.1261 43.59 50.5746 43.5251C50.1205 43.4927 49.5366 43.4602 48.8879 43.4278C43.1464 43.071 31.2417 42.3573 27.9979 38.2377C27.414 37.4917 27.1545 36.6483 27.1869 35.74L27.6411 26.8521C27.6086 27.7603 27.8681 28.6037 28.452 29.3498C31.6634 33.4694 43.6005 34.2154 49.342 34.5398C49.9907 34.5723 50.5422 34.6047 51.0288 34.6371C51.5802 34.6696 52.3587 34.702 53.267 34.7344C57.419 34.8642 65.2041 35.0588 67.5072 37.5565C67.9937 38.0755 68.2208 38.6919 68.1884 39.373L67.8964 48.2935Z" fill="url(#paint10_linear_337_1895)"/>
<path d="M67.0247 46.4462C64.6892 43.9485 56.9365 43.7214 52.7845 43.6241C51.8762 43.5916 51.0977 43.5916 50.5463 43.5268C50.0921 43.4943 49.5083 43.4619 48.8595 43.4295C43.118 43.0726 31.2133 42.359 27.9695 38.2394C27.3857 37.4933 27.1262 36.6499 27.1586 35.7417L27.6127 26.8537L28.0668 17.9009C28.0344 18.8091 28.2939 19.6525 28.8778 20.3986C32.0891 24.5182 44.0263 25.2643 49.7678 25.5886C50.4165 25.6211 50.968 25.6535 51.4545 25.686C52.006 25.7184 52.7845 25.7508 53.6927 25.7833C57.8448 25.913 65.6299 26.1076 67.933 28.6054C68.4195 29.1244 68.6466 29.7407 68.6141 30.4219L68.16 39.3747L67.8681 48.2951C67.933 47.6139 67.5113 46.9652 67.0247 46.4462Z" fill="url(#paint11_linear_337_1895)"/>
</g>
<path d="M93.1912 25.4325C82.9675 23.5762 74.9346 17.9644 63.9807 16.7949C55.9478 15.9373 49.8682 16.4074 43.4131 17.9644C41.2073 18.4834 38.4501 19.1646 35.7902 20.1053C32.1247 21.4028 28.6539 23.2194 27.8754 25.7171C27.7456 26.1063 27.6807 26.4956 27.6483 26.8848L28.1024 17.932C28.1349 17.5752 28.1997 17.1859 28.3295 16.7642C29.1404 14.2665 32.6113 12.45 36.2443 11.1525C38.9042 10.2118 41.6614 9.56303 43.8672 9.01158C50.3223 7.45457 56.678 7.10609 64.4348 7.84206C76.7603 9.01157 86.2537 10.9528 98.6682 16.0646C111.083 21.1765 125.323 29.5745 127.148 33.2258L119.481 34.3212C110.463 29.9096 103.415 28.7187 93.1912 25.4325Z" fill="url(#paint12_linear_337_1895)"/>
<path d="M27.8825 25.7162C28.6935 23.2184 32.1643 21.4019 35.7974 20.1044C38.4573 19.1637 41.2145 18.515 43.4203 17.9635C49.8754 16.4065 55.2247 16.125 64.442 16.8282C79.3234 17.9635 85.8958 20.377 93.2874 22.1461C106.708 25.3582 116.567 29.9387 118.027 37.2414H107.439C105.978 33.2249 100.866 33.4129 92.8333 31.0341C82.9747 28.1147 74.8545 25.1323 63.9879 25.7162C56.3001 26.1054 49.4213 25.2945 42.9661 26.8515C40.7604 27.3705 38.0032 28.0517 35.3432 28.9924C31.6778 30.2899 28.2069 32.1064 27.4284 34.6041C27.2987 34.9934 27.2338 35.3826 27.2013 35.7719L27.6555 26.8839C27.6879 26.4947 27.7528 26.1054 27.8825 25.7162Z" fill="url(#paint13_linear_337_1895)"/>
<defs>
<linearGradient id="paint0_linear_337_1895" x1="9.53015" y1="52.7362" x2="41.0887" y2="60.5828" gradientUnits="userSpaceOnUse">
<stop stop-color="#2549C3"/>
<stop offset="0.1093" stop-color="#2C50C6"/>
<stop offset="0.2724" stop-color="#4164D0"/>
<stop offset="0.4681" stop-color="#6284DE"/>
<stop offset="0.6375" stop-color="#84A6EE"/>
<stop offset="0.6968" stop-color="#739AEC"/>
<stop offset="0.8162" stop-color="#5886E8"/>
<stop offset="0.9213" stop-color="#4779E6"/>
<stop offset="1" stop-color="#4175E5"/>
</linearGradient>
<linearGradient id="paint1_linear_337_1895" x1="7.76744" y1="60.5436" x2="37.3662" y2="73.1848" gradientUnits="userSpaceOnUse">
<stop stop-color="#E1C625"/>
<stop offset="1" stop-color="#FFDD51"/>
</linearGradient>
<linearGradient id="paint2_linear_337_1895" x1="-21.839" y1="26.8071" x2="40.4391" y2="42.2917" gradientUnits="userSpaceOnUse">
<stop stop-color="#4175E5"/>
<stop offset="0.0787486" stop-color="#4779E6"/>
<stop offset="0.1838" stop-color="#5886E8"/>
<stop offset="0.3032" stop-color="#739AEC"/>
<stop offset="0.3625" stop-color="#84A6EE"/>
<stop offset="0.5319" stop-color="#6284DE"/>
<stop offset="0.7276" stop-color="#4164D0"/>
<stop offset="0.8907" stop-color="#2C50C6"/>
<stop offset="1" stop-color="#2549C3"/>
</linearGradient>
<linearGradient id="paint3_linear_337_1895" x1="-21.839" y1="26.8071" x2="40.4391" y2="42.2917" gradientUnits="userSpaceOnUse">
<stop stop-color="#4175E5"/>
<stop offset="0.0787486" stop-color="#4779E6"/>
<stop offset="0.1838" stop-color="#5886E8"/>
<stop offset="0.3032" stop-color="#739AEC"/>
<stop offset="0.3625" stop-color="#84A6EE"/>
<stop offset="0.5319" stop-color="#6284DE"/>
<stop offset="0.7276" stop-color="#4164D0"/>
<stop offset="0.8907" stop-color="#2C50C6"/>
<stop offset="1" stop-color="#2549C3"/>
</linearGradient>
<linearGradient id="paint4_linear_337_1895" x1="-9.32813" y1="45.9353" x2="92.5235" y2="44.512" gradientUnits="userSpaceOnUse">
<stop stop-color="white" stop-opacity="0"/>
<stop offset="0.2565" stop-color="#BCBECF" stop-opacity="0.2565"/>
<stop offset="0.6207" stop-color="#62678E" stop-opacity="0.6207"/>
<stop offset="0.877" stop-color="#2A3066" stop-opacity="0.877"/>
<stop offset="1" stop-color="#141B56"/>
</linearGradient>
<linearGradient id="paint5_linear_337_1895" x1="63.4722" y1="28.9767" x2="-0.590267" y2="57.8765" gradientUnits="userSpaceOnUse">
<stop stop-color="#E1C625"/>
<stop offset="1" stop-color="#FFDD51"/>
</linearGradient>
<linearGradient id="paint6_linear_337_1895" x1="-9.33595" y1="45.9343" x2="92.5157" y2="44.5111" gradientUnits="userSpaceOnUse">
<stop stop-color="white" stop-opacity="0"/>
<stop offset="0.2565" stop-color="#BCBECF" stop-opacity="0.2565"/>
<stop offset="0.6207" stop-color="#B49814"/>
<stop offset="0.877" stop-color="#705F0B"/>
<stop offset="1" stop-color="#F0D23B"/>
</linearGradient>
<linearGradient id="paint7_linear_337_1895" x1="15.6181" y1="21.3193" x2="58.3866" y2="31.953" gradientUnits="userSpaceOnUse">
<stop stop-color="#4175E5"/>
<stop offset="0.0787486" stop-color="#4779E6"/>
<stop offset="0.1838" stop-color="#5886E8"/>
<stop offset="0.3032" stop-color="#739AEC"/>
<stop offset="0.3625" stop-color="#84A6EE"/>
<stop offset="0.5319" stop-color="#6284DE"/>
<stop offset="0.7276" stop-color="#4164D0"/>
<stop offset="0.8907" stop-color="#2C50C6"/>
<stop offset="1" stop-color="#2549C3"/>
</linearGradient>
<linearGradient id="paint8_linear_337_1895" x1="13.5443" y1="33.5788" x2="75.236" y2="32.7167" gradientUnits="userSpaceOnUse">
<stop stop-color="#141B56"/>
<stop offset="0.123" stop-color="#264AC4" stop-opacity="0.877"/>
<stop offset="0.3793" stop-color="#264AC4" stop-opacity="0.78"/>
<stop offset="0.7435" stop-color="#BCBECF" stop-opacity="0.2565"/>
<stop offset="1" stop-color="white" stop-opacity="0"/>
</linearGradient>
<linearGradient id="paint9_linear_337_1895" x1="62.8778" y1="26.9979" x2="29.5801" y2="42.0192" gradientUnits="userSpaceOnUse">
<stop stop-color="#E1C625"/>
<stop offset="1" stop-color="#FFDD51"/>
</linearGradient>
<linearGradient id="paint10_linear_337_1895" x1="62.8778" y1="26.9979" x2="29.5801" y2="42.0192" gradientUnits="userSpaceOnUse">
<stop stop-color="#E1C625"/>
<stop offset="1" stop-color="#FFDD51"/>
</linearGradient>
<linearGradient id="paint11_linear_337_1895" x1="13.5443" y1="33.5802" x2="75.236" y2="32.7181" gradientUnits="userSpaceOnUse">
<stop stop-color="#141B56"/>
<stop offset="0.123" stop-color="#264AC4" stop-opacity="0.877"/>
<stop offset="0.3793" stop-color="#E9CD31"/>
<stop offset="0.7435" stop-color="#BCBECF" stop-opacity="0.2565"/>
<stop offset="1" stop-color="white" stop-opacity="0"/>
</linearGradient>
<linearGradient id="paint12_linear_337_1895" x1="132.735" y1="16.5566" x2="24.7456" y2="16.3253" gradientUnits="userSpaceOnUse">
<stop offset="0.132769" stop-color="#2549C3"/>
<stop offset="0.290454" stop-color="#4779E6"/>
<stop offset="0.365085" stop-color="#5886E8"/>
<stop offset="0.434908" stop-color="#739AEC"/>
<stop offset="0.528783" stop-color="#84A6EE"/>
<stop offset="0.667224" stop-color="#6284DE"/>
<stop offset="0.770752" stop-color="#4164D0"/>
<stop offset="0.8907" stop-color="#2C50C6"/>
<stop offset="1" stop-color="#2549C3"/>
</linearGradient>
<linearGradient id="paint13_linear_337_1895" x1="115.576" y1="2.82269" x2="29.8105" y2="41.5131" gradientUnits="userSpaceOnUse">
<stop stop-color="#E1C625"/>
<stop offset="1" stop-color="#FFDD51"/>
</linearGradient>
</defs>
</svg>
