<svg width="616" height="32" viewBox="0 0 616 32" fill="none" xmlns="http://www.w3.org/2000/svg">
<path d="M108.136 31.8652H116.818C116.834 30.5387 116.731 29.2133 116.51 27.9052C115.374 19.6332 110.574 11.744 103.002 5.68524C95.6668 -0.175564 86.4488 -3.55476 77.7148 -3.55476V5.16604C84.5172 5.16604 91.7552 7.83245 97.5808 12.4876C103.301 17.0768 107.085 23.1356 107.903 29.102C108.072 30.0132 108.15 30.9387 108.136 31.8652Z" fill="#2E2C7E"/>
<path d="M110.252 31.8652H118.933C118.92 30.9387 118.998 30.0132 119.166 29.102C119.984 23.1356 123.747 17.0768 129.489 12.4876C135.31 7.83239 142.552 5.16599 149.355 5.16599V-3.51961C140.616 -3.51961 131.398 -0.158009 124.068 5.72039C116.491 11.7792 111.695 19.6684 110.56 27.9404C110.338 29.2485 110.235 30.5738 110.252 31.9004" fill="#2E2C7E"/>
<path d="M125.754 16.9842C125.753 18.2506 126.128 19.4888 126.831 20.5422C127.534 21.5956 128.533 22.4168 129.703 22.902C130.873 23.3873 132.16 23.5147 133.402 23.2681C134.644 23.0216 135.785 22.4122 136.681 21.5171C137.577 20.6219 138.187 19.4812 138.435 18.2392C138.682 16.9972 138.555 15.7098 138.071 14.5397C137.587 13.3696 136.766 12.3695 135.713 11.6659C134.66 10.9622 133.422 10.5866 132.156 10.5866C131.315 10.586 130.483 10.7511 129.706 11.0724C128.93 11.3936 128.224 11.8647 127.629 12.4589C127.035 13.053 126.563 13.7585 126.241 14.5349C125.92 15.3114 125.754 16.1437 125.754 16.9842Z" fill="#2E2C7E"/>
<path d="M88.5781 16.9842C88.5773 18.2506 88.952 19.4888 89.6549 20.5422C90.3578 21.5956 91.3574 22.4168 92.5271 22.902C93.6969 23.3873 94.9842 23.5147 96.2264 23.2681C97.4686 23.0216 98.6097 22.4122 99.5055 21.5171C100.401 20.6219 101.011 19.4812 101.259 18.2392C101.506 16.9972 101.38 15.7098 100.895 14.5397C100.411 13.3696 99.5902 12.3695 98.5373 11.6659C97.4844 10.9622 96.2465 10.5866 94.9801 10.5866C93.283 10.5866 91.6553 11.2605 90.4548 12.4602C89.2543 13.6598 88.5793 15.2871 88.5781 16.9842Z" fill="#2E2C7E"/>
<path d="M30.7654 31.8647H39.451C39.4656 30.5381 39.361 29.2127 39.1385 27.9047C38.0033 19.6327 33.2074 11.7435 25.6306 5.68475C18.3001 -0.158455 9.08215 -3.52005 0.34375 -3.52005V5.16555C7.14615 5.16555 14.3886 7.83196 20.2098 12.4872C25.9298 17.0764 29.7182 23.1352 30.5366 29.1016C30.7017 30.0131 30.7783 30.9385 30.7654 31.8647Z" fill="#FFD402"/>
<path d="M32.8802 31.8652H41.5658C41.5529 30.9389 41.6295 30.0135 41.7946 29.102C42.613 23.1356 46.375 17.0768 52.1214 12.4876C57.9426 7.83239 65.1806 5.16599 71.9831 5.16599V-3.51961C63.2491 -3.51961 54.031 -0.158009 46.6962 5.72039C39.1238 11.7792 34.3278 19.6684 33.1926 27.9404C32.9702 29.2484 32.8656 30.5737 32.8802 31.9004" fill="#FFD402"/>
<path d="M48.3984 16.9842C48.3976 18.2508 48.7724 19.4892 49.4755 20.5426C50.1787 21.5961 51.1785 22.4174 52.3485 22.9025C53.5185 23.3876 54.8061 23.5147 56.0483 23.2678C57.2906 23.0209 58.4317 22.4111 59.3273 21.5155C60.2229 20.6199 60.8328 19.4788 61.0796 18.2365C61.3265 16.9942 61.1994 15.7066 60.7143 14.5367C60.2292 13.3667 59.4079 12.3668 58.3545 11.6637C57.301 10.9606 56.0626 10.5857 54.796 10.5866C53.0993 10.5866 51.472 11.2606 50.2723 12.4604C49.0725 13.6602 48.3984 15.2875 48.3984 16.9842Z" fill="#FFD402"/>
<path d="M11.2109 16.9842C11.2101 18.2512 11.5851 19.4899 12.2887 20.5436C12.9922 21.5972 13.9925 22.4185 15.163 22.9033C16.3335 23.3881 17.6216 23.5148 18.8641 23.2672C20.1066 23.0196 21.2477 22.4089 22.1429 21.5124C23.0382 20.6159 23.6473 19.474 23.8932 18.2311C24.1391 16.9883 24.0107 15.7004 23.5242 14.5306C23.0378 13.3607 22.2152 12.3615 21.1605 11.6595C20.1059 10.9574 18.8667 10.584 17.5997 10.5866C15.9045 10.589 14.2795 11.264 13.0816 12.4636C11.8838 13.6631 11.2109 15.289 11.2109 16.9842Z" fill="#FFD402"/>
<path d="M265.109 31.8652H273.795C273.809 30.5385 273.705 29.2132 273.482 27.9052C272.347 19.6332 267.551 11.744 259.979 5.68524C252.644 -0.175564 243.426 -3.55476 234.688 -3.55476V5.16604C241.49 5.16604 248.732 7.83245 254.554 12.4876C260.296 17.0768 264.062 23.1356 264.88 29.102C265.045 30.0136 265.122 30.9389 265.109 31.8652Z" fill="#2E2C7E"/>
<path d="M267.224 31.8652H275.91C275.897 30.9389 275.973 30.0135 276.138 29.102C276.957 23.1356 280.723 17.0768 286.465 12.4876C292.286 7.83239 299.529 5.16599 306.331 5.16599V-3.51961C297.593 -3.51961 288.375 -0.158009 281.044 5.72039C273.468 11.7792 268.672 19.6684 267.536 27.9404C267.314 29.2484 267.209 30.5737 267.224 31.9004" fill="#2E2C7E"/>
<path d="M282.73 16.9842C282.73 18.2506 283.104 19.4888 283.807 20.5422C284.51 21.5956 285.51 22.4168 286.679 22.902C287.849 23.3873 289.137 23.5147 290.379 23.2681C291.621 23.0216 292.762 22.4122 293.658 21.5171C294.554 20.6219 295.164 19.4812 295.411 18.2392C295.659 16.9972 295.532 15.7098 295.048 14.5397C294.563 13.3696 293.743 12.3695 292.69 11.6659C291.637 10.9622 290.399 10.5866 289.132 10.5866C288.292 10.586 287.46 10.7511 286.683 11.0724C285.906 11.3936 285.2 11.8647 284.606 12.4589C284.011 13.053 283.54 13.7585 283.218 14.5349C282.896 15.3114 282.73 16.1437 282.73 16.9842Z" fill="#2E2C7E"/>
<path d="M245.555 16.9842C245.554 18.2506 245.929 19.4888 246.631 20.5422C247.334 21.5956 248.334 22.4168 249.504 22.902C250.673 23.3873 251.961 23.5147 253.203 23.2681C254.445 23.0216 255.586 22.4122 256.482 21.5171C257.378 20.6219 257.988 19.4812 258.235 18.2392C258.483 16.9972 258.356 15.7098 257.872 14.5397C257.387 13.3696 256.567 12.3695 255.514 11.6659C254.461 10.9622 253.223 10.5866 251.957 10.5866C251.116 10.586 250.284 10.7511 249.507 11.0724C248.73 11.3936 248.025 11.8647 247.43 12.4589C246.836 13.053 246.364 13.7585 246.042 14.5349C245.72 15.3114 245.555 16.1437 245.555 16.9842Z" fill="#2E2C7E"/>
<path d="M187.746 31.8652H196.427C196.444 30.5387 196.34 29.2133 196.119 27.9052C194.984 19.6332 190.183 11.744 182.611 5.68524C175.276 -0.175564 166.063 -3.55476 157.324 -3.55476V5.16604C164.127 5.16604 171.365 7.83245 177.19 12.4876C182.932 17.0768 186.694 23.1356 187.517 29.102C187.682 30.0136 187.759 30.9389 187.746 31.8652Z" fill="#FFD402"/>
<path d="M189.861 31.8652H198.542C198.529 30.9387 198.607 30.0132 198.775 29.102C199.594 23.1356 203.356 17.0768 209.098 12.4876C214.923 7.83239 222.161 5.16599 228.964 5.16599V-3.51961C220.225 -3.51961 211.012 -0.158009 203.677 5.72039C196.105 11.7792 191.304 19.6684 190.169 27.9404C189.948 29.2485 189.845 30.5738 189.861 31.9004" fill="#FFD402"/>
<path d="M205.363 16.9842C205.362 18.2506 205.737 19.4888 206.44 20.5422C207.143 21.5956 208.143 22.4168 209.312 22.902C210.482 23.3873 211.769 23.5147 213.012 23.2681C214.254 23.0216 215.395 22.4122 216.291 21.5171C217.186 20.6219 217.797 19.4812 218.044 18.2392C218.291 16.9972 218.165 15.7098 217.68 14.5397C217.196 13.3696 216.375 12.3695 215.322 11.6659C214.27 10.9622 213.032 10.5866 211.765 10.5866C210.068 10.5866 208.44 11.2605 207.24 12.4602C206.039 13.6598 205.364 15.2871 205.363 16.9842Z" fill="#FFD402"/>
<path d="M168.188 16.9842C168.187 18.2506 168.561 19.4888 169.264 20.5422C169.967 21.5956 170.967 22.4168 172.137 22.902C173.306 23.3873 174.594 23.5147 175.836 23.2681C177.078 23.0216 178.219 22.4122 179.115 21.5171C180.011 20.6219 180.621 19.4812 180.868 18.2392C181.116 16.9972 180.989 15.7098 180.505 14.5397C180.02 13.3696 179.2 12.3695 178.147 11.6659C177.094 10.9622 175.856 10.5866 174.59 10.5866C172.892 10.5866 171.265 11.2605 170.064 12.4602C168.864 13.6598 168.189 15.2871 168.188 16.9842Z" fill="#FFD402"/>
<path d="M419.847 31.8652H428.529C428.545 30.5387 428.442 29.2133 428.221 27.9052C427.085 19.6332 422.285 11.744 414.713 5.68524C407.378 -0.175564 398.16 -3.55476 389.426 -3.55476V5.16604C396.228 5.16604 403.466 7.83245 409.292 12.4876C415.012 17.0768 418.796 23.1356 419.614 29.102C419.782 30.0132 419.861 30.9387 419.847 31.8652Z" fill="#2E2C7E"/>
<path d="M421.959 31.8652H430.64C430.627 30.9387 430.705 30.0132 430.873 29.102C431.692 23.1356 435.454 17.0768 441.196 12.4876C447.017 7.83239 454.259 5.16599 461.062 5.16599V-3.51961C452.323 -3.51961 443.11 -0.158009 435.775 5.72039C428.202 11.7792 423.402 19.6684 422.267 27.9404C422.045 29.2485 421.942 30.5738 421.959 31.9004" fill="#2E2C7E"/>
<path d="M437.465 16.9842C437.464 18.2506 437.839 19.4888 438.542 20.5422C439.245 21.5956 440.244 22.4168 441.414 22.902C442.584 23.3873 443.871 23.5147 445.113 23.2681C446.355 23.0216 447.496 22.4122 448.392 21.5171C449.288 20.6219 449.898 19.4812 450.146 18.2392C450.393 16.9972 450.266 15.7098 449.782 14.5397C449.298 13.3696 448.477 12.3695 447.424 11.6659C446.371 10.9622 445.133 10.5866 443.867 10.5866C442.17 10.5866 440.542 11.2605 439.342 12.4602C438.141 13.6598 437.466 15.2871 437.465 16.9842Z" fill="#2E2C7E"/>
<path d="M576.9 31.8652H585.585C585.572 30.9389 585.649 30.0135 585.814 29.102C586.633 23.1356 590.395 17.0768 596.141 12.4876C601.962 7.83239 609.2 5.16599 616.007 5.16599V-3.51961C607.269 -3.51961 598.051 -0.158009 590.716 5.72039C583.143 11.7792 578.347 19.6684 577.212 27.9404C576.99 29.2484 576.885 30.5737 576.9 31.9004" fill="#2E2C7E"/>
<path d="M592.398 16.9842C592.398 18.2506 592.772 19.4888 593.475 20.5422C594.178 21.5956 595.178 22.4168 596.347 22.902C597.517 23.3873 598.805 23.5147 600.047 23.2681C601.289 23.0216 602.43 22.4122 603.326 21.5171C604.222 20.6219 604.832 19.4812 605.079 18.2392C605.326 16.9972 605.2 15.7098 604.716 14.5397C604.231 13.3696 603.411 12.3695 602.358 11.6659C601.305 10.9622 600.067 10.5866 598.8 10.5866C597.96 10.586 597.128 10.7511 596.351 11.0724C595.574 11.3936 594.868 11.8647 594.274 12.4589C593.679 13.053 593.208 13.7585 592.886 14.5349C592.564 15.3114 592.398 16.1437 592.398 16.9842Z" fill="#2E2C7E"/>
<path d="M400.289 16.9842C400.288 18.2506 400.663 19.4888 401.366 20.5422C402.069 21.5956 403.068 22.4168 404.238 22.902C405.408 23.3873 406.695 23.5147 407.937 23.2681C409.179 23.0216 410.321 22.4122 411.216 21.5171C412.112 20.6219 412.722 19.4812 412.97 18.2392C413.217 16.9972 413.091 15.7098 412.606 14.5397C412.122 13.3696 411.301 12.3695 410.248 11.6659C409.195 10.9622 407.957 10.5866 406.691 10.5866C404.994 10.5866 403.366 11.2605 402.166 12.4602C400.965 13.6598 400.29 15.2871 400.289 16.9842Z" fill="#2E2C7E"/>
<path d="M342.48 31.8652H351.166C351.18 30.5385 351.076 29.2132 350.853 27.9052C349.718 19.6332 344.922 11.744 337.345 5.68524C330.015 -0.175564 320.797 -3.55476 312.059 -3.55476V5.16604C318.861 5.16604 326.103 7.83245 331.925 12.4876C337.645 17.0768 341.429 23.1356 342.251 29.102C342.417 30.0136 342.493 30.9389 342.48 31.8652Z" fill="#FFD402"/>
<path d="M344.595 31.8652H353.281C353.268 30.9389 353.344 30.0135 353.509 29.102C354.328 23.1356 358.09 17.0768 363.836 12.4876C369.658 7.83239 376.895 5.16599 383.698 5.16599V-3.51961C374.964 -3.51961 365.746 -0.158009 358.411 5.72039C350.839 11.7792 346.043 19.6684 344.908 27.9404C344.685 29.2484 344.58 30.5737 344.595 31.9004" fill="#FFD402"/>
<path d="M360.102 16.9842C360.101 18.2499 360.475 19.4873 361.177 20.5403C361.879 21.5933 362.878 22.4146 364.047 22.9004C365.215 23.3861 366.502 23.5145 367.743 23.2694C368.985 23.0243 370.126 22.4167 371.023 21.5233C371.919 20.6299 372.531 19.4908 372.78 18.25C373.029 17.0092 372.905 15.7223 372.424 14.5519C371.942 13.3815 371.124 12.3802 370.074 11.6744C369.023 10.9686 367.787 10.5901 366.521 10.5866C364.824 10.5866 363.197 11.2607 361.997 12.4604C360.798 13.6602 360.124 15.2875 360.124 16.9842" fill="#FFD402"/>
<path d="M322.926 16.9842C322.925 18.2506 323.3 19.4888 324.003 20.5422C324.706 21.5956 325.705 22.4168 326.875 22.902C328.045 23.3873 329.332 23.5147 330.574 23.2681C331.816 23.0216 332.957 22.4122 333.853 21.5171C334.749 20.6219 335.359 19.4812 335.606 18.2392C335.854 16.9972 335.727 15.7098 335.243 14.5397C334.758 13.3696 333.938 12.3695 332.885 11.6659C331.832 10.9622 330.594 10.5866 329.328 10.5866C328.487 10.586 327.655 10.7511 326.878 11.0724C326.101 11.3936 325.396 11.8647 324.801 12.4589C324.207 13.053 323.735 13.7585 323.413 14.5349C323.091 15.3114 322.926 16.1437 322.926 16.9842Z" fill="#FFD402"/>
<path d="M574.582 31.8652H583.267C583.282 30.5385 583.177 29.2132 582.955 27.9052C581.82 19.6332 577.024 11.744 569.447 5.68524C562.117 -0.175564 552.899 -3.55476 544.16 -3.55476V5.16604C550.963 5.16604 558.205 7.83245 564.026 12.4876C569.746 17.0768 573.53 23.1356 574.353 29.102C574.518 30.0136 574.595 30.9389 574.582 31.8652Z" fill="#2E2C7E"/>
<path d="M555.027 16.9842C555.026 18.2502 555.401 19.4881 556.103 20.5413C556.806 21.5945 557.805 22.4157 558.974 22.9012C560.144 23.3867 561.43 23.5146 562.672 23.2688C563.914 23.023 565.055 22.4145 565.952 21.5202C566.848 20.6259 567.459 19.486 567.707 18.2446C567.955 17.0032 567.83 15.716 567.347 14.5458C566.864 13.3756 566.045 12.3749 564.993 11.6701C563.941 10.9654 562.704 10.5884 561.438 10.5866C560.598 10.5861 559.765 10.7511 558.989 11.0724C558.212 11.3936 557.506 11.8648 556.911 12.4589C556.317 13.053 555.845 13.7585 555.524 14.535C555.202 15.3114 555.036 16.1437 555.036 16.9842" fill="#2E2C7E"/>
<path d="M497.199 31.8652H505.885C505.899 30.5385 505.795 29.2132 505.572 27.9052C504.437 19.6332 499.641 11.744 492.064 5.68524C484.734 -0.175564 475.516 -3.55476 466.777 -3.55476V5.16604C473.58 5.16604 480.822 7.83245 486.643 12.4876C492.363 17.0768 496.152 23.1356 496.97 29.102C497.135 30.0136 497.212 30.9389 497.199 31.8652Z" fill="#FFD402"/>
<path d="M499.329 31.8652H508.015C508.002 30.9389 508.079 30.0135 508.244 29.102C509.062 23.1356 512.824 17.0768 518.571 12.4876C524.392 7.83239 531.63 5.16599 538.432 5.16599V-3.51961C529.698 -3.51961 520.48 -0.158009 513.145 5.72039C505.573 11.7792 500.777 19.6684 499.642 27.9404C499.419 29.2484 499.315 30.5737 499.329 31.9004" fill="#FFD402"/>
<path d="M514.836 16.9842C514.835 18.2506 515.21 19.4888 515.913 20.5422C516.616 21.5956 517.615 22.4168 518.785 22.902C519.955 23.3873 521.242 23.5147 522.484 23.2681C523.726 23.0216 524.868 22.4122 525.763 21.5171C526.659 20.6219 527.269 19.4812 527.517 18.2392C527.764 16.9972 527.637 15.7098 527.153 14.5397C526.669 13.3696 525.848 12.3695 524.795 11.6659C523.742 10.9622 522.504 10.5866 521.238 10.5866C520.397 10.586 519.565 10.7511 518.788 11.0724C518.012 11.3936 517.306 11.8647 516.711 12.4589C516.117 13.053 515.645 13.7585 515.323 14.5349C515.002 15.3114 514.836 16.1437 514.836 16.9842Z" fill="#FFD402"/>
<path d="M477.66 16.9842C477.659 18.2506 478.034 19.4888 478.737 20.5422C479.44 21.5956 480.439 22.4168 481.609 22.902C482.779 23.3873 484.066 23.5147 485.308 23.2681C486.551 23.0216 487.692 22.4122 488.587 21.5171C489.483 20.6219 490.093 19.4812 490.341 18.2392C490.588 16.9972 490.462 15.7098 489.977 14.5397C489.493 13.3696 488.672 12.3695 487.619 11.6659C486.567 10.9622 485.329 10.5866 484.062 10.5866C483.222 10.586 482.389 10.7511 481.613 11.0724C480.836 11.3936 480.13 11.8647 479.536 12.4589C478.941 13.053 478.469 13.7585 478.148 14.5349C477.826 15.3114 477.66 16.1437 477.66 16.9842Z" fill="#FFD402"/>
</svg>
