<svg width="48" height="70" viewBox="0 0 48 70" fill="none" xmlns="http://www.w3.org/2000/svg">
<path d="M47.0633 11.484V52.213C46.8289 52.213 46.5919 52.2105 46.3575 52.2005V52.213C42.8612 52.213 39.1828 53.3203 35.9433 55.3053C38.0955 55.4151 39.8088 57.1956 39.8088 59.3777C39.8088 61.6296 37.9833 63.4551 35.7314 63.4551C33.477 63.4551 31.6515 61.6296 31.6515 59.3777C31.6515 59.1408 31.6714 58.9114 31.7113 58.6869C29.1776 61.3055 27.5392 64.4053 27.1177 67.4677C26.9731 68.535 26.9731 68.5899 26.9731 69.2258H20.0902C20.0902 68.5899 20.0902 68.535 19.943 67.4677C19.5216 64.3928 17.8732 61.283 15.3245 58.6595C15.3669 58.8939 15.3893 59.1333 15.3893 59.3802C15.3893 61.6321 13.5639 63.4576 11.3119 63.4576C9.06003 63.4576 7.23206 61.6321 7.23206 59.3802C7.23206 57.1931 8.95778 55.4076 11.1174 55.3078C7.88045 53.3228 4.19958 52.2155 0.705746 52.2155V52.203C0.468834 52.213 0.234419 52.2155 0 52.2155V11.484C1.51624 11.484 2.89033 12.3319 3.88286 14.0502C4.88039 15.7684 5.49387 18.362 5.49387 21.8458V45.784C7.72085 45.0558 9.79819 43.9161 11.5663 42.4921C11.4815 42.4996 11.3967 42.5021 11.3119 42.5021C9.06003 42.5021 7.23206 40.6766 7.23206 38.4247C7.23206 36.1728 9.06003 34.3473 11.3119 34.3473C13.504 34.3473 15.2896 36.073 15.3843 38.2402C16.6163 36.2626 17.327 34.0855 17.327 31.8685V7.22209C17.327 4.16468 19.8034 0.00249625 22.8608 0.00249625V33.1852C22.8608 36.7738 20.1999 42.4223 15.5589 46.35C14.2746 47.4373 12.883 48.39 11.4192 49.1905C13.3269 50.0933 15.1499 51.223 16.8208 52.5596C19.756 54.9063 22.0353 57.6844 23.5316 60.687C25.0304 57.6844 27.3098 54.9063 30.2425 52.5596C31.9109 51.2254 33.7363 50.0933 35.6416 49.1905C34.1777 48.39 32.7837 47.4373 31.5019 46.35C26.8609 42.4223 24.2 36.7738 24.2 33.1852V0C27.2574 0 29.7337 4.16467 29.7337 7.2196V31.866C29.7337 34.068 30.4395 36.2351 31.6565 38.2027C31.7687 36.0531 33.5518 34.3423 35.7314 34.3423C37.9833 34.3423 39.8088 36.1678 39.8088 38.4197C39.8088 40.6716 37.9833 42.4971 35.7314 42.4971C35.6541 42.4971 35.5768 42.4946 35.4994 42.4896C37.2676 43.9111 39.3424 45.0508 41.5669 45.779V21.8408C41.5669 18.357 42.1804 15.7659 43.1754 14.0452C44.1704 12.3319 45.5445 11.484 47.0633 11.484Z" fill="#2E2C7E"/>
</svg>
